<?xml version="1.0" encoding="utf-8"?>
<!-- Generator: Adobe Illustrator 21.0.2, SVG Export Plug-In . SVG Version: 6.00 Build 0)  -->
<svg version="1.1" id="Layer_1" xmlns="http://www.w3.org/2000/svg" xmlns:xlink="http://www.w3.org/1999/xlink" x="0px" y="0px"
	 viewBox="0 0 15 13" style="enable-background:new 0 0 15 13;" xml:space="preserve">
<style type="text/css">
	.st0{fill:#231F20;}
</style>
<g>
	<path class="st0" d="M6.4,2C6.3,2.1,6.2,2.2,6.3,2.3c0,0.1,0.1,0.2,0.2,0.3c0-0.1,0.1-0.2,0.1-0.3C6.5,2.2,6.4,2.1,6.4,2"/>
	<path class="st0" d="M8.2,2c0.1,0.1,0.1,0.2,0.1,0.3c0,0.1-0.1,0.2-0.2,0.3C8.1,2.5,8,2.4,8,2.3C8,2.2,8.2,2.1,8.2,2"/>
	<path class="st0" d="M5.3,1.9c0.1,0,0.1-0.1,0.1-0.1c0-0.1-0.1-0.1-0.1-0.1c-0.1,0-0.1,0.1-0.1,0.1C5.2,1.9,5.3,1.9,5.3,1.9"/>
	<path class="st0" d="M5.4,2.1C5.4,2,5.4,2,5.3,2S5.2,2,5.2,2.1c0,0.1,0.1,0.1,0.1,0.1S5.4,2.2,5.4,2.1"/>
	<path class="st0" d="M5.5,2.4c0-0.1-0.1-0.1-0.1-0.1c-0.1,0-0.1,0.1-0.1,0.1s0.1,0.1,0.1,0.1C5.4,2.5,5.5,2.5,5.5,2.4"/>
	<path class="st0" d="M6,1.3c0.1,0,0.1-0.1,0.1-0.1c0-0.1-0.1-0.1-0.1-0.1C6,1.1,5.9,1.2,5.9,1.2C5.9,1.3,6,1.3,6,1.3"/>
	<path class="st0" d="M5.7,1.4c0.1,0,0.1-0.1,0.1-0.1c0-0.1-0.1-0.1-0.1-0.1c-0.1,0-0.1,0.1-0.1,0.1C5.6,1.4,5.6,1.4,5.7,1.4"/>
	<path class="st0" d="M5.5,1.6c0.1,0,0.1-0.1,0.1-0.1c0-0.1-0.1-0.1-0.1-0.1c-0.1,0-0.1,0.1-0.1,0.1C5.4,1.6,5.4,1.6,5.5,1.6"/>
	<path class="st0" d="M6.3,1.4c0.1,0,0.1-0.1,0.1-0.1c0-0.1-0.1-0.1-0.1-0.1c-0.1,0-0.1,0.1-0.1,0.1C6.2,1.3,6.3,1.4,6.3,1.4"/>
	<path class="st0" d="M6.6,1.5c0.1,0,0.1-0.1,0.1-0.1c0-0.1-0.1-0.1-0.1-0.1c-0.1,0-0.1,0.1-0.1,0.1C6.5,1.4,6.6,1.5,6.6,1.5"/>
	<path class="st0" d="M6.9,1.6C7,1.6,7,1.5,7,1.5C7,1.4,7,1.4,6.9,1.4c-0.1,0-0.1,0.1-0.1,0.1C6.8,1.5,6.9,1.6,6.9,1.6"/>
	<path class="st0" d="M9.1,1.8c0,0.1,0.1,0.1,0.1,0.1c0.1,0,0.1-0.1,0.1-0.1c0-0.1-0.1-0.1-0.1-0.1C9.1,1.7,9.1,1.7,9.1,1.8"/>
	<path class="st0" d="M9.3,2C9.2,2,9.1,2,9.1,2.1c0,0.1,0.1,0.1,0.1,0.1c0.1,0,0.1-0.1,0.1-0.1C9.4,2,9.3,2,9.3,2"/>
	<path class="st0" d="M9.2,2.3c-0.1,0-0.1,0.1-0.1,0.1s0.1,0.1,0.1,0.1c0.1,0,0.1-0.1,0.1-0.1S9.3,2.3,9.2,2.3"/>
	<path class="st0" d="M8.5,1.3c0.1,0,0.1-0.1,0.1-0.1c0-0.1-0.1-0.1-0.1-0.1c-0.1,0-0.1,0.1-0.1,0.1C8.4,1.3,8.5,1.3,8.5,1.3"/>
	<path class="st0" d="M8.8,1.4C8.9,1.4,9,1.4,9,1.3c0-0.1-0.1-0.1-0.1-0.1c-0.1,0-0.1,0.1-0.1,0.1C8.7,1.4,8.8,1.4,8.8,1.4"/>
	<path class="st0" d="M9.1,1.6c0.1,0,0.1-0.1,0.1-0.1c0-0.1-0.1-0.1-0.1-0.1C9,1.4,9,1.5,9,1.5C9,1.6,9,1.6,9.1,1.6"/>
	<path class="st0" d="M8.2,1.4c0.1,0,0.1-0.1,0.1-0.1c0-0.1-0.1-0.1-0.1-0.1c-0.1,0-0.1,0.1-0.1,0.1C8.1,1.3,8.2,1.4,8.2,1.4"/>
	<path class="st0" d="M7.9,1.5C8,1.5,8,1.4,8,1.3C8,1.3,8,1.2,7.9,1.2c-0.1,0-0.1,0.1-0.1,0.1C7.8,1.4,7.9,1.5,7.9,1.5"/>
	<path class="st0" d="M7.5,1.5c0,0.1,0.1,0.1,0.1,0.1c0.1,0,0.1-0.1,0.1-0.1S7.7,1.4,7.6,1.4C7.6,1.4,7.5,1.4,7.5,1.5"/>
	<path class="st0" d="M7.1,2.1h0.1V1.6c0,0-0.1,0-0.1,0V2.1z"/>
	<path class="st0" d="M7.5,1.6c0,0-0.1,0-0.1,0v0.5h0.1V1.6z"/>
	<path class="st0" d="M7.2,1V0.7C7,0.7,6.9,0.8,6.9,1H7.2z"/>
	<path class="st0" d="M7.4,1h0.3c0-0.2-0.1-0.3-0.3-0.3V1z"/>
	<path class="st0" d="M6.9,1.1c0,0.2,0.2,0.3,0.4,0.3c0.2,0,0.3-0.1,0.4-0.3H6.9z"/>
	<path class="st0" d="M7.5,0.6C7.4,0.6,7.3,0.5,7.3,0.4c0.1,0,0.2,0.1,0.3,0.2V0.1C7.5,0.2,7.4,0.3,7.3,0.3c0-0.1,0.1-0.2,0.2-0.3
		H7.1c0.1,0.1,0.1,0.2,0.2,0.3C7.1,0.3,7,0.2,7,0.1v0.4C7,0.5,7.1,0.4,7.2,0.4c0,0.1-0.1,0.2-0.2,0.3H7.5z"/>
	<path class="st0" d="M7.5,9.4c-0.1,0-0.1-0.1-0.1-0.1c0-0.1,0.1-0.1,0.1-0.1c0.1,0,0.1,0.1,0.1,0.1C7.6,9.3,7.6,9.4,7.5,9.4
		 M6.8,9.1C6.7,9.1,6.6,9.1,6.6,9c0-0.1,0.1-0.2,0.2-0.2c0.1,0,0.2,0.1,0.2,0.2C6.9,9.1,6.9,9.1,6.8,9.1 M6.5,8.4L6.5,8.4
		c-0.1-0.1-0.2-0.1-0.2,0c0,0-0.1,0.1-0.1,0.1l0,0l0,0c0.1,0.1,0.1,0.1,0.1,0.2c0,0,0,0,0,0c0,0-0.1,0-0.2,0l0,0l0,0c0,0,0,0,0,0
		c0,0,0,0,0,0c0,0.1,0,0.1,0,0.1c0,0,0,0,0,0C5.9,9,6,9,6,9l0,0c0,0,0.1,0.1,0.1,0.1c-0.1,0-0.1,0-0.2,0C5.8,9.1,5.8,9,5.8,8.9
		c0-0.1,0-0.2,0.1-0.3l0,0l0,0c0,0,0-0.1-0.1-0.1c0,0,0.1,0,0.1,0l0,0l0,0c0-0.1,0.2-0.2,0.4-0.2C6.4,8.2,6.5,8.3,6.5,8.4
		C6.6,8.4,6.6,8.4,6.5,8.4C6.6,8.5,6.6,8.4,6.5,8.4 M7.9,9C7.6,8.9,7.1,8.7,6.7,8.5l0,0c0-0.1,0-0.2-0.1-0.3
		C6.5,8.2,6.4,8.2,6.3,8.2c0,0-0.1,0-0.1,0C6.2,8.1,6.1,8.1,6.1,8C5.9,7.8,5.8,7.6,5.7,7.3C5.6,7.2,5.6,7.1,5.6,6.9
		c0,0.1-0.2,0.3-0.4,0.3c0,0,0-0.1,0-0.1C5.1,7.2,5,7.3,4.8,7.2c0,0.2,0.1,0.3,0.1,0.5C5,8,5.2,8.3,5.5,8.6c0.1,0.1,0.2,0.2,0.2,0.2
		c0,0,0,0,0,0c0,0.1,0.1,0.2,0.2,0.3c0.1,0.1,0.2,0,0.3,0c0.2,0.1,0.4,0.2,0.7,0.3c0.3,0.1,0.6,0.1,0.8,0.1c0.2,0,0.4-0.1,0.7-0.2
		c0.1-0.1,0.2-0.1,0.3-0.2c0,0,0,0,0,0C8.5,9.1,8.2,9.1,7.9,9"/>
	<path class="st0" d="M7.8,10.5c0-0.1-0.1-0.1-0.1-0.1c-0.2,0-0.1,0.4-0.3,0.4c-0.1,0-0.1-0.1-0.1-0.1c0-0.1,0-0.1,0-0.1
		c0,0,0-0.1-0.1-0.1c0,0-0.1,0-0.1,0.1c0,0,0,0.1,0,0.1c0,0.1,0,0.1-0.1,0.1c-0.2,0-0.1-0.4-0.3-0.4c0,0-0.1,0-0.1,0.1
		c0-0.1,0-0.1,0-0.2c0-0.1,0.1-0.2,0.2-0.2c0.2,0,0.2,0.3,0.3,0.3c0,0,0.1,0,0.1-0.1c0-0.1-0.1-0.2-0.1-0.3c0-0.1,0.1-0.2,0.2-0.3
		c0.1,0.1,0.2,0.2,0.2,0.3c0,0.1-0.1,0.2-0.1,0.3c0,0,0,0.1,0.1,0.1c0.1,0,0.1-0.3,0.3-0.3c0.1,0,0.2,0.1,0.2,0.2
		C7.9,10.4,7.9,10.5,7.8,10.5 M7.3,11.1c-0.1,0-0.1,0-0.1-0.1c0-0.1,0-0.1,0.1-0.1c0.1,0,0.1,0,0.1,0.1C7.4,11.1,7.3,11.1,7.3,11.1
		 M7.7,10.1C7.7,10.1,7.6,10.1,7.7,10.1L7.6,9.7c-0.2,0-0.4,0-0.7-0.1v0.6c0,0-0.1,0-0.1,0c-0.2,0-0.3,0.1-0.3,0.3
		c0,0.1,0.1,0.2,0.1,0.3c0-0.1,0.1-0.1,0.1-0.1c0.1,0,0,0.4,0.3,0.4c0,0,0,0,0,0.1c0,0.1,0.1,0.2,0.2,0.2c0.1,0,0.2-0.1,0.2-0.2
		c0,0,0,0,0-0.1c0.2,0,0.2-0.4,0.3-0.4c0,0,0.1,0.1,0.1,0.1C7.9,10.6,8,10.5,8,10.4C8,10.3,7.9,10.1,7.7,10.1"/>
	<path class="st0" d="M13.1,10.7C13.1,10.7,13,10.6,13.1,10.7c-0.6,0.1-1.3-0.3-1.9-0.7c-0.5-0.4-1.1-0.7-1.5-0.7
		c-0.2,0-0.3,0-0.4,0.1C9.1,9.4,9,9.5,8.9,9.7C8.8,9.9,8.8,10,8.7,10.1c-0.1,0.1-0.1,0.2-0.1,0.3c0,0.1,0,0.2,0.1,0.2
		c0.1,0.1,0.2,0.1,0.3,0.2c0,0,0.1,0,0.1,0C9.1,11,9.2,11,9.2,11.1c-0.2,0.1-0.5,0.2-0.8,0.2c-0.4,0.1-0.7,0.1-1.1,0.1
		c-0.4,0-0.8,0-1.1-0.1c-0.3-0.1-0.6-0.1-0.8-0.2c0-0.1,0.1-0.1,0.2-0.2c0,0,0.1,0,0.1,0c0.1-0.1,0.2-0.1,0.3-0.2
		C6,10.6,6,10.5,6,10.4c0-0.1-0.1-0.2-0.1-0.3C5.8,10,5.7,9.9,5.7,9.7C5.6,9.5,5.5,9.4,5.3,9.3C5.2,9.3,5,9.2,4.9,9.2
		c-0.4,0-1,0.3-1.5,0.7c-0.6,0.4-1.3,0.9-1.8,0.7c0,0-0.1,0-0.1,0c0,0,0,0.1,0,0.1C1.7,10.8,1.8,10.9,2,11c0.2,0.2,0.4,0.3,0.6,0.3
		c0.2,0,0.4-0.1,0.6-0.2c0.2-0.1,0.4-0.3,0.7-0.4c0.4-0.3,0.9-0.6,1.3-0.6c0,0-0.1,0.1-0.1,0.1c-0.1,0.1-0.2,0.2-0.2,0.4
		c0,0.2,0.1,0.3,0.1,0.4c0,0,0,0.1,0.1,0.1C5,11.3,5,11.4,5,11.5c0,0,0,0.1,0,0.2c0,0.1,0.1,0.3,0.4,0.4c0.4,0.2,1,0.3,1.8,0.3
		c0.8,0,1.5-0.1,1.8-0.3c0.3-0.2,0.4-0.3,0.4-0.4c0-0.1,0-0.1,0-0.2c0-0.1,0-0.2,0.1-0.3c0-0.1,0.1-0.1,0.1-0.2
		c0.1-0.1,0.1-0.2,0.1-0.4c0-0.2-0.1-0.3-0.2-0.4c0,0-0.1-0.1-0.1-0.1c0.4,0,0.9,0.3,1.3,0.6c0.2,0.1,0.4,0.3,0.7,0.4
		c0.2,0.1,0.5,0.2,0.6,0.2c0.2,0,0.4-0.1,0.6-0.3C12.7,10.9,12.9,10.8,13.1,10.7C13.1,10.7,13.1,10.7,13.1,10.7"/>
	<path class="st0" d="M7.4,6.5v-2c0.2,0,0.4,0.1,0.6,0.2c0.2,0.1,0.4,0.3,0.6,0.4c0.2,0.2,0.3,0.4,0.4,0.7C9,6,9,6.2,9,6.5H7.4z
		 M7.3,3.7c-0.6,0-1,0.2-1.2,0.3C6,3.9,5.9,3.8,5.9,3.7c0-0.3,0.9-0.4,1.4-0.4h0c0.5,0,1.4,0,1.4,0.4c0,0.1-0.1,0.2-0.2,0.2
		C8.2,3.8,7.9,3.7,7.3,3.7 M7.3,6.5H5.5c0-0.3,0-0.5,0.1-0.8c0.1-0.2,0.2-0.5,0.4-0.7c0.2-0.2,0.3-0.3,0.6-0.4
		C6.8,4.6,7,4.5,7.3,4.5V6.5z M9.9,6.4c-0.1,0-0.2-0.1-0.2-0.2C9.6,6,9.3,5.5,9.3,5.4c0-0.1-0.1-0.1-0.1-0.2c0-0.1,0-0.1,0.1-0.1
		c0,0,0.1-0.1,0.1-0.1c0,0,0,0,0-0.1C9.3,4.8,9.2,4.6,9.1,4.5C8.9,4.3,8.8,4.2,8.6,4.1C8.7,4,8.8,3.9,8.8,3.7c0-0.1,0-0.2-0.1-0.2
		C8.8,3.2,9,2.7,9.1,2.6L8.8,2.4c0.1,0.1,0.1,0.3,0.1,0.4C8.8,2.7,8.7,2.7,8.7,2.5c0,0.1-0.1,0.3-0.1,0.4c0.1,0,0.2-0.1,0.3,0
		C8.8,3,8.6,3.1,8.4,3C8.3,3,8.2,2.9,8.2,2.9c0-0.1,0-0.1,0.1-0.1c0.1,0,0.1,0.1,0.1,0.2c0.1-0.1,0.2-0.3,0-0.4
		c-0.1,0-0.2,0.1-0.3,0.3c0-0.2-0.1-0.3-0.2-0.3c-0.2,0-0.1,0.3-0.1,0.4c0-0.1,0.1-0.2,0.1-0.2c0,0,0.1,0,0.1,0.1C8,2.9,7.9,3,7.8,3
		c-0.1,0-0.4,0-0.4-0.3c0.1,0,0.2,0.1,0.3,0.2c0-0.2,0-0.3,0-0.5C7.6,2.5,7.4,2.5,7.3,2.6c0-0.1,0.1-0.2,0.2-0.3H7
		c0.1,0.1,0.2,0.2,0.2,0.3C7.1,2.5,7,2.5,6.9,2.4c0,0.2,0,0.3,0,0.5C7,2.8,7.1,2.7,7.2,2.7C7.2,2.9,6.9,3,6.8,3
		C6.6,3,6.5,2.9,6.5,2.8c0-0.1,0-0.1,0.1-0.1c0,0,0.1,0.1,0.1,0.2c0.1-0.1,0.1-0.4-0.1-0.4c-0.1,0-0.2,0.1-0.2,0.3
		c0-0.1-0.2-0.3-0.3-0.3c-0.2,0-0.1,0.3,0,0.4c0-0.1,0-0.2,0.1-0.2c0.1,0,0.1,0.1,0.1,0.1C6.4,2.9,6.3,3,6.2,3
		C5.9,3.1,5.8,3,5.7,2.9c0.1,0,0.2,0,0.3,0C6,2.8,5.9,2.7,5.9,2.5c0,0.1-0.1,0.2-0.2,0.3c0-0.1,0-0.3,0.1-0.4L5.4,2.6
		c0.2,0.2,0.4,0.6,0.5,0.9C5.8,3.6,5.8,3.6,5.8,3.7C5.8,3.9,5.9,4,6,4.1C5.8,4.2,5.6,4.3,5.5,4.5C5.2,4.8,5,5.1,4.9,5.4
		c0,0,0.3,0.3,0.3,0.3C5.3,5.9,5.3,6,5.4,6.1c0,0.2,0,0.2,0.1,0.3c0,0,0.1,0.2,0.1,0.2h1.7v1.9c-0.1,0-0.1,0-0.2,0.1
		c0.2,0.1,0.4,0.2,0.6,0.2c0-0.1,0-0.2,0.1-0.3c0,0-0.2,0-0.4,0V6.6H9C9,6.9,9,7.1,8.9,7.3C8.8,7.6,8.7,7.8,8.5,8
		C8.4,8.2,8.2,8.3,8,8.4c0,0,0,0-0.1,0.1c0,0-0.1,0.1-0.1,0.2c0,0.1,0,0.1,0,0.2c0.1,0,0.1,0,0.2,0.1C8.6,9,8.7,9,8.7,8.9l0,0
		C8.9,8.8,9,8.7,9.1,8.6C9.3,8.3,9.5,8,9.7,7.7c0.1-0.4,0.2-0.7,0.2-1.1C9.9,6.5,9.9,6.5,9.9,6.4"/>
	<path class="st0" d="M8.3,5.3C8.3,5.3,8.3,5.3,8.3,5.3C8.3,5.4,8.3,5.4,8.3,5.3c0,0.1,0,0.1,0,0.1c0,0,0.1,0,0.1,0c0,0,0,0,0,0.1
		c0,0,0,0,0,0c0.1,0.2,0.2,0.4,0.2,0.7c0,0,0,0-0.1,0c0,0,0,0.1,0,0.1H8.2c0,0,0-0.1,0-0.1c0,0,0,0-0.1,0c0,0,0,0,0-0.1
		c0,0,0,0,0,0.1c0,0,0,0-0.1,0c0,0,0,0,0,0.1H7.6c0,0,0,0,0-0.1c0,0-0.1,0-0.1,0V5.6c0,0,0.1,0,0.1,0c0,0,0,0,0-0.1c0,0,0.1,0,0.1,0
		c0,0,0,0-0.1,0c0,0,0,0,0-0.1c0,0,0,0-0.1,0V4.9c0,0,0,0,0.1,0c0,0,0-0.1,0-0.1C7.7,4.9,7.9,4.9,8,5C8.1,5.1,8.2,5.2,8.3,5.3
		 M8.8,6.2C8.8,6.2,8.8,6.2,8.8,6.2C8.7,5.9,8.6,5.6,8.4,5.4c0,0,0,0,0,0c0,0,0.1,0,0.1-0.1c-0.1,0-0.1,0-0.1,0c0,0,0,0,0,0
		C8.2,5.2,8.1,5,8,5C7.9,4.9,7.7,4.8,7.6,4.8c0,0,0,0,0.1,0c0-0.1,0-0.1-0.1-0.1c0,0,0,0,0,0c0,0,0,0-0.1,0c0,0,0,0.1,0,0.1
		c0,0,0,0,0,0c0,0,0,0.1,0.1,0.1c0,0,0-0.1,0-0.1v0.7c0,0-0.1,0-0.1,0c0,0,0.1,0,0.1,0v0.7c0,0,0,0,0-0.1c-0.1,0-0.1,0-0.1,0.1
		c0,0,0,0,0.1,0c0,0,0,0,0,0.1c0,0,0.1,0,0.1,0c0,0,0,0,0,0.1c0,0,0.1,0,0.1-0.1c0,0-0.1,0-0.1,0h0.5c0,0,0,0.1,0,0.1
		c0,0,0-0.1,0-0.1h0.5c0,0,0,0-0.1,0c0,0.1,0.1,0.1,0.1,0.1c0,0,0,0,0-0.1c0,0,0,0,0.1,0C8.8,6.3,8.8,6.3,8.8,6.2
		C8.8,6.3,8.8,6.3,8.8,6.2C8.8,6.2,8.8,6.2,8.8,6.2"/>
	<path class="st0" d="M8.5,6C8.5,6,8.5,6,8.5,6C8.5,6,8.5,6,8.5,6C8.5,5.9,8.5,6,8.5,6C8.5,5.9,8.5,5.9,8.5,6
		C8.4,5.9,8.3,5.9,8.3,5.8c0,0,0,0,0,0c0,0,0,0,0,0c0,0,0,0,0,0c0,0,0,0,0,0c0,0,0,0,0,0l0,0c0,0,0,0,0.1-0.1c0-0.1,0-0.1-0.1-0.1
		c0,0,0,0-0.1,0c0,0,0-0.1-0.1-0.1c0,0,0,0,0-0.1c0,0,0,0.1,0,0.2c0.1,0.1,0.2,0.1,0.2,0.2c0,0,0,0,0,0c0,0,0,0,0,0c0,0,0,0,0,0
		c0,0,0,0,0,0c0,0,0,0,0,0c0,0-0.1-0.1-0.1-0.2c-0.1-0.1,0-0.1,0-0.2c0-0.1,0-0.2-0.1-0.2c0,0,0,0,0-0.1c0,0,0,0,0,0c0,0,0,0,0,0
		c0,0,0,0,0,0c0,0,0,0,0,0c0,0,0,0,0,0c0,0,0,0,0,0c0,0,0,0,0,0c0,0,0,0,0,0c0,0,0,0,0,0l0,0l0,0c0,0,0,0,0,0c0,0,0,0,0,0
		c0,0,0,0,0,0c0,0,0,0,0,0c0,0,0,0,0,0c0,0,0.1,0,0.1,0c0,0.1-0.1,0.1-0.1,0.1c0,0,0,0,0,0c0,0,0,0,0-0.1c0,0,0,0-0.1,0
		c0,0,0,0,0-0.1c0,0,0,0,0-0.1c0,0,0,0,0,0c0,0,0,0,0,0c0,0,0,0,0,0c0,0,0,0,0,0c0,0,0,0,0,0c0,0,0,0,0,0c0,0,0,0,0,0c0,0,0,0,0,0
		c0,0,0,0,0,0c0,0,0,0,0,0c0,0,0,0,0,0c0,0,0,0,0,0c0,0,0,0,0,0c0,0,0,0,0,0c0,0,0,0,0,0c0,0,0,0,0,0c0,0,0,0,0,0c0,0,0,0,0,0
		c0,0,0,0,0,0c0,0,0,0,0,0c0,0,0,0,0,0c0,0,0,0,0,0c0,0,0,0,0,0c0,0,0,0,0,0c0,0,0,0,0,0c0,0,0,0,0,0c0,0,0,0,0,0c0,0,0,0,0,0
		c0,0,0,0,0,0c0,0,0,0,0,0c0,0,0,0.1,0,0.1c0,0,0,0,0,0c0,0,0,0,0,0c0,0,0,0,0,0c0,0,0,0,0,0c0,0,0,0,0,0c0,0,0,0,0,0
		c0,0,0,0.1,0.1,0.1c0,0-0.1,0.1-0.1,0.1c0,0,0,0-0.1,0c0,0,0,0,0,0c0,0,0,0,0,0c0,0,0,0,0,0c0,0,0,0,0,0c0,0,0,0,0,0c0,0,0,0,0,0
		c0,0,0,0,0,0c0,0,0,0,0,0c0,0,0,0,0,0c0,0,0,0,0,0c0,0,0,0,0,0c0,0,0,0,0,0c0,0,0,0,0,0c0,0,0,0,0,0c0,0,0,0,0,0c0,0,0,0,0,0
		c0,0,0,0,0,0c0,0,0,0,0,0c0,0,0,0,0,0c0,0,0,0,0,0c0,0,0,0,0,0c0,0,0,0,0,0c0,0,0,0,0,0c0,0,0,0,0,0c0,0,0,0,0,0c0,0,0,0,0,0
		c0,0,0,0,0,0c0,0,0,0,0.1,0c0,0,0,0,0,0c0,0,0,0,0,0c0,0,0,0,0,0c0,0.1,0.1,0.1,0.2,0.2c0,0-0.1,0-0.1,0c0,0-0.1,0-0.1,0.1
		C8,5.9,8,5.9,8,6C8,6,8,6,7.9,6c0,0,0,0,0,0c0,0,0-0.1-0.1,0c0,0,0,0,0,0h0c0,0,0,0,0,0c0,0,0,0,0,0c0,0,0,0,0,0c0,0,0,0,0,0
		c0,0,0,0,0,0c0,0,0,0,0,0c0,0,0,0,0,0c0,0,0,0,0,0c0,0,0,0,0,0c0,0,0,0,0,0c0,0,0,0,0,0c0,0,0,0,0,0c0,0,0,0,0,0c0,0,0,0,0,0
		c0,0,0,0,0,0c0,0,0,0,0,0c0,0,0,0,0,0c0,0,0,0,0,0c0,0,0,0,0,0c0,0,0,0,0,0c0,0,0,0,0,0c0,0,0,0,0,0c0,0,0,0,0,0c0,0,0,0,0,0
		c0,0,0,0,0,0c0,0,0,0,0,0c0,0,0,0,0,0l0,0c0,0,0,0,0,0c0,0,0,0,0,0c0,0,0,0,0-0.1c0-0.1,0.1-0.1,0.1-0.1c0,0,0.1,0.1,0.1,0.1
		C8.4,6,8.4,6,8.5,6C8.4,6,8.4,6,8.5,6C8.4,6,8.4,6,8.5,6C8.4,6,8.4,6,8.3,6c0,0,0,0,0,0c0,0,0,0,0,0c0,0,0,0,0,0c0,0,0,0,0,0
		c0,0,0,0,0,0c0,0,0,0,0,0c0,0,0,0,0,0c0,0,0,0,0,0c0,0,0,0,0,0c0,0,0,0,0,0c0,0,0,0,0,0C8.4,6.1,8.4,6.1,8.5,6
		C8.4,6.1,8.4,6.1,8.4,6.1c0,0,0,0,0,0c0,0,0,0,0,0c0,0,0,0,0,0c0,0,0,0,0,0c0,0,0,0,0,0C8.5,6.1,8.4,6.1,8.5,6
		C8.4,6.1,8.5,6.1,8.5,6C8.5,6,8.5,6,8.5,6C8.5,6,8.5,6,8.5,6C8.5,6,8.5,6,8.5,6L8.5,6z"/>
	<path class="st0" d="M6.9,6.9L6.9,6.9C6.9,6.9,6.8,6.9,6.9,6.9C6.8,7,6.8,7,6.9,7l0,0c0,0,0,0,0,0c0,0,0,0.1,0,0.2L6.6,6.9
		c0.1,0,0.2-0.1,0.3-0.1C6.9,6.8,6.9,6.8,6.9,6.9 M6.8,7.6L6.4,7c0,0,0.1,0,0.1,0l0.3,0.4C6.8,7.4,6.8,7.5,6.8,7.6 M6.8,7.8L6.2,7
		c0,0,0,0,0.1,0c0,0,0.1,0,0.1,0l0.5,0.7C6.8,7.7,6.8,7.8,6.8,7.8 M6.1,7l0.6,0.9C6.4,7.8,6.1,7.5,6.1,7 M7.1,6.9L7.1,6.9L7.1,6.9
		C7,6.8,7,6.7,6.9,6.7c-0.1,0-0.3,0.1-0.5,0.1C6.2,6.9,6.1,6.8,6,6.8l0,0.1c0,0,0,0,0,0c0,0,0-0.1-0.1-0.1c0,0-0.1,0-0.1,0.1
		c0,0,0,0.1,0.1,0.1c0,0,0,0,0,0l0,0.1c0,0,0,0,0,0c0,0.4,0.3,0.9,0.8,1.1c0.1,0,0.2,0,0.2,0.1c0,0.1,0,0.1-0.1,0.1c0,0,0,0,0,0
		c0,0,0.1,0,0.1,0c0,0,0,0,0,0c0,0-0.1,0-0.1,0.1c0,0.1,0.1,0.1,0.1,0.1c0.1,0,0.2,0,0.2-0.2c0,0,0.1,0,0.1,0L7,8l0,0L7,7l0,0
		C7.1,7.1,7.1,7,7.1,6.9C7.1,7,7.1,6.9,7.1,6.9"/>
	<path class="st0" d="M6.6,5C6.6,5,6.6,5,6.6,5C6.6,5,6.6,5,6.6,5C6.6,5,6.6,5,6.6,5C6.6,5,6.6,5,6.6,5C6.6,5,6.6,5,6.6,5
		C6.6,5,6.6,5,6.6,5C6.6,5,6.6,5,6.6,5L6.6,5C6.7,5,6.7,5,6.6,5C6.7,5,6.7,5,6.6,5C6.7,5,6.7,5,6.6,5C6.6,5,6.6,5,6.6,5
		C6.6,5,6.6,5,6.6,5C6.6,5,6.6,5,6.6,5C6.6,5,6.6,5,6.6,5C6.6,5.1,6.6,5.1,6.6,5C6.6,5.1,6.6,5,6.6,5 M6.6,5C6.6,5,6.6,5,6.6,5
		C6.6,5,6.6,5,6.6,5C6.6,4.9,6.6,5,6.6,5 M6.7,5C6.7,5,6.7,5,6.7,5C6.7,5,6.7,5,6.7,5C6.7,5,6.7,5,6.7,5 M6.6,5C6.6,5,6.6,5,6.6,5
		C6.6,5,6.6,5,6.6,5 M6.9,5.1c0.1,0,0.2,0,0.2-0.1c0-0.1-0.3-0.1-0.3-0.1c0,0,0,0,0,0h0C7,4.9,7,4.7,7.1,4.7C7,4.7,7,4.8,6.9,4.8
		c0,0,0-0.1,0-0.1c0,0-0.1,0-0.1,0.1c0,0,0,0,0,0c0,0,0,0,0,0C6.8,5,7.1,5,7.1,5C7.1,5.1,7,5.1,6.9,5.1c-0.1,0-0.1-0.1-0.3,0
		c0,0,0-0.1,0-0.1c0,0,0,0,0,0c0,0,0,0,0,0c0,0,0,0,0,0c0,0,0,0,0,0c0,0,0,0,0,0c0,0,0,0,0,0c0,0,0,0,0,0c0,0,0,0,0,0c0,0,0,0,0,0
		c0,0,0,0,0,0c0,0,0,0,0,0c0,0,0,0,0,0c0,0,0,0,0,0c0,0,0,0,0,0c0,0,0,0.1,0,0.1c0,0,0,0,0,0c0,0,0,0,0,0c0,0,0,0,0,0c0,0,0,0,0,0
		c0,0,0,0,0,0c0,0,0,0,0,0c0,0,0,0,0,0c0,0,0,0,0,0c0,0,0,0,0,0c0,0,0,0,0,0c0,0,0,0,0,0c0,0,0,0,0,0c0,0,0,0,0,0c0,0,0,0,0,0
		c0,0,0,0,0,0c0,0,0,0,0,0c0,0,0,0,0,0c0,0,0,0,0,0c0,0,0,0,0,0c0,0,0,0,0,0c0,0,0,0,0,0c0,0,0,0,0,0c0,0,0,0,0,0c0,0,0,0,0,0
		c0,0,0,0,0,0c0,0,0,0,0,0c0,0,0,0,0,0c0,0,0,0,0,0c0,0,0,0,0,0c0,0,0,0,0,0c0,0,0,0,0,0c0,0,0,0,0,0c0,0,0,0,0,0c0,0,0,0,0,0
		c0,0,0,0.1,0,0c0,0,0,0,0,0c0,0,0,0,0,0c0,0,0,0,0,0c0,0,0,0,0,0c0,0,0,0,0,0c0,0,0,0,0,0c0,0,0,0,0,0c0,0-0.1,0-0.1,0
		c0,0,0,0-0.1,0c0,0-0.1,0-0.1,0c0,0,0,0,0,0c0,0,0,0,0,0c0,0,0,0,0,0c0,0,0,0,0,0c0,0,0,0,0,0c0,0,0,0,0,0c0,0,0,0,0,0c0,0,0,0,0,0
		c0,0,0,0,0,0c0,0,0,0,0,0c0,0,0,0,0,0c0,0,0,0,0,0c0,0,0,0,0,0c0,0,0,0,0,0c0,0,0,0,0,0c0,0,0,0,0,0c0,0,0,0,0,0c0,0,0,0,0,0
		c0,0,0,0,0,0c0,0,0,0,0,0c0,0,0,0,0,0c0,0,0,0,0,0c0,0,0,0,0,0c0,0,0,0,0,0c0,0,0,0,0,0c0,0,0,0,0,0c0,0,0,0,0,0c0,0,0,0,0,0
		c0,0,0,0,0,0c0,0,0,0,0,0c0,0,0,0,0,0c0,0,0,0,0,0c0,0,0,0,0,0c0,0,0,0,0,0c0,0,0,0,0,0c0,0,0,0,0,0c0,0,0,0,0,0c0,0,0,0,0,0
		c0,0,0,0,0,0c0,0,0,0,0.1,0c0,0,0,0,0,0c0,0,0,0,0,0c0,0,0,0,0,0c0,0,0,0,0,0c0,0,0,0,0,0c0,0,0,0,0,0c0,0,0.1,0,0.1,0
		c0.1,0,0-0.1,0.1-0.1c0,0,0,0,0,0c0,0,0,0.1,0,0.1c0,0,0,0,0,0c0,0,0,0,0,0c0,0,0,0,0,0c0,0,0,0-0.1,0c0,0,0,0,0,0c0,0,0,0,0,0
		c0,0,0,0,0,0c0,0,0,0,0,0c0,0,0,0,0,0c0,0,0,0,0,0c0,0,0,0,0,0c0,0,0,0,0,0c0,0,0,0,0,0c0,0,0,0,0,0c0,0,0,0,0,0c0,0,0,0,0,0
		c0,0,0,0,0,0c0,0,0,0,0,0c0,0,0,0,0,0c0,0,0,0,0,0c0,0,0,0,0,0c0,0,0,0,0,0c0,0,0,0,0,0c0,0,0,0,0,0c0,0,0,0,0,0c0,0,0,0,0,0
		c0,0,0,0,0,0c0,0,0,0,0,0c0,0,0,0,0,0c0,0,0,0,0,0c0,0,0,0,0,0c0,0,0,0,0,0c0,0,0,0,0,0C6.9,5.2,6.9,5.2,6.9,5.1
		C6.9,5.2,6.9,5.2,6.9,5.1C7,5.2,7,5.2,6.9,5.1C7,5.2,7,5.2,6.9,5.1C7,5.2,7,5.2,6.9,5.1C7,5.2,7,5.2,7,5.2c0,0,0,0,0,0c0,0,0,0,0,0
		c0,0,0,0,0,0c0,0,0,0,0,0c0,0,0,0,0,0c0,0,0,0,0,0c0,0,0,0,0,0c0,0,0,0,0,0c0,0,0,0,0,0c0,0,0,0,0,0c0,0,0,0,0,0c0,0,0,0,0,0
		c0,0,0,0,0,0c0,0,0,0,0,0c0,0,0,0,0,0c0,0,0,0,0,0c0,0,0,0,0,0c0,0,0,0,0,0c0,0,0,0,0,0c0,0,0,0,0,0c0,0,0,0,0,0c0,0,0,0,0,0l0,0h0
		c0,0,0,0,0,0c0,0,0,0,0,0c0,0,0,0,0,0c0,0,0,0,0,0c0,0,0,0,0,0c0,0,0,0,0,0C7,5.2,7,5.1,6.9,5.1C6.9,5.1,6.9,5.1,6.9,5.1"/>
	<path class="st0" d="M6.4,5.8L6.4,5.8C6.4,5.8,6.4,5.8,6.4,5.8 M6.3,5.6C6.3,5.6,6.3,5.5,6.3,5.6C6.3,5.5,6.3,5.5,6.3,5.6
		C6.3,5.5,6.3,5.5,6.3,5.6C6.3,5.5,6.3,5.5,6.3,5.6C6.3,5.5,6.3,5.5,6.3,5.6C6.3,5.5,6.3,5.5,6.3,5.6C6.3,5.5,6.3,5.5,6.3,5.6
		L6.3,5.6C6.4,5.5,6.4,5.5,6.3,5.6C6.4,5.5,6.4,5.5,6.3,5.6C6.4,5.5,6.4,5.5,6.3,5.6C6.4,5.5,6.4,5.5,6.3,5.6
		C6.3,5.5,6.3,5.5,6.3,5.6C6.3,5.5,6.3,5.6,6.3,5.6C6.3,5.6,6.3,5.6,6.3,5.6C6.3,5.6,6.3,5.6,6.3,5.6C6.3,5.6,6.3,5.6,6.3,5.6
		 M6.3,5.5C6.3,5.5,6.3,5.5,6.3,5.5C6.3,5.5,6.3,5.5,6.3,5.5C6.3,5.4,6.3,5.5,6.3,5.5 M6.4,5.5C6.4,5.5,6.4,5.5,6.4,5.5
		C6.4,5.5,6.4,5.5,6.4,5.5C6.4,5.5,6.4,5.5,6.4,5.5 M6.2,5.6C6.2,5.6,6.2,5.6,6.2,5.6C6.2,5.6,6.2,5.6,6.2,5.6 M7.1,5.6
		c0,0,0-0.1-0.2-0.1c-0.1,0-0.4,0-0.4,0c0,0,0.1,0,0.1,0c0,0,0,0,0,0c0.2,0,0.3,0,0.4,0c-0.1-0.1-0.2,0-0.3,0c0.1,0,0.1,0,0.1,0
		c-0.1,0-0.2,0-0.2,0c0,0,0,0,0,0c-0.1,0-0.2,0-0.2,0.1c0,0.1,0.3,0,0.4,0C7.1,5.5,7.1,5.6,7.1,5.6c0,0-0.1,0-0.2,0
		c-0.1,0-0.3,0-0.5,0c0,0,0-0.1,0-0.1c0,0,0,0,0,0c0,0,0,0,0,0c0,0,0,0,0,0c0,0,0,0,0,0c0,0,0,0,0,0c0,0,0,0,0,0c0,0,0,0,0,0
		c0,0,0,0,0,0c0,0,0,0,0,0c0,0,0,0,0,0c0,0,0,0,0,0c0,0,0,0,0,0c0,0,0,0,0,0c0,0,0,0,0,0c0,0,0,0,0,0l0,0c0,0,0,0,0,0c0,0,0,0,0,0
		c0,0,0,0,0,0l0,0c0,0,0,0-0.1,0c0,0,0,0,0,0c0,0,0,0,0-0.1c0,0,0,0,0,0c0,0,0,0,0,0c0,0,0,0,0,0c0,0,0,0,0,0c0,0,0,0,0,0
		c0,0,0,0,0,0c0,0,0,0,0,0c0,0,0,0,0,0c0,0,0,0,0,0c0,0,0,0,0,0c0,0,0,0,0,0c0,0,0,0,0,0c0,0,0,0,0,0c0,0,0,0,0,0c0,0,0,0,0,0
		c0,0,0,0,0,0c0,0,0,0,0,0c0,0,0,0,0,0c0,0,0,0,0,0c0,0,0,0,0,0c0,0,0,0,0,0c0,0,0,0,0,0c0,0,0,0,0,0c0,0,0,0,0,0c0,0,0,0,0,0
		c0,0,0,0,0,0c0,0,0,0,0,0c0,0,0,0,0,0c0,0,0,0,0,0c0,0,0,0,0,0c0,0,0,0,0,0c0,0,0,0.1,0,0c0,0,0,0,0,0c0,0,0,0,0,0c0,0,0,0,0,0
		c0,0,0,0,0,0c0,0,0,0,0,0c0,0,0,0,0,0c0,0,0,0,0,0c0,0,0,0,0.1,0c0,0,0,0,0,0c0,0-0.1,0-0.1,0c0,0-0.1,0-0.1,0c0,0,0,0,0,0
		c0,0,0,0,0,0c0,0,0,0,0,0c0,0,0,0,0,0c0,0,0,0,0,0c0,0,0,0,0,0c0,0,0,0,0,0c0,0,0,0,0,0c0,0,0,0,0,0c0,0,0,0,0,0c0,0,0,0,0,0
		c0,0,0,0,0,0c0,0,0,0,0,0c0,0,0,0,0,0c0,0,0,0,0,0c0,0,0,0,0,0c0,0,0,0,0,0c0,0,0,0,0,0c0,0,0,0,0,0c0,0,0,0,0,0c0,0,0,0,0,0
		c0,0,0,0,0,0c0,0,0,0,0,0c0,0,0,0,0,0c0,0,0,0,0,0c0,0,0,0,0,0c0,0,0,0,0,0c0,0,0,0,0,0c0,0,0,0,0,0c0,0,0,0,0,0c0,0,0,0,0,0
		c0,0,0,0,0,0c0,0,0,0,0,0c0,0,0,0,0,0c0,0,0,0,0,0c0,0,0,0,0,0c0,0,0,0,0,0c0,0,0,0,0,0c0,0,0,0,0,0c0-0.1,0,0,0.1-0.1c0,0,0,0,0,0
		c0,0,0,0,0,0c0,0,0.1,0,0.1-0.1c0,0,0,0,0,0c0.1,0,0-0.1,0.2-0.1c0,0,0,0,0,0c0,0,0,0.1,0,0.1c0,0,0,0,0,0c0,0,0,0,0,0c0,0,0,0,0,0
		c0,0,0-0.1-0.1,0c0,0,0,0,0,0c0,0,0,0,0,0c0,0,0,0,0,0c0,0,0,0,0,0c0,0,0,0,0,0c0,0,0,0,0,0c0,0,0,0,0,0c0,0,0,0,0,0c0,0,0,0,0,0
		c0,0,0,0,0,0c0,0,0,0,0,0c0,0,0,0,0,0c0,0,0,0,0,0c0,0,0,0,0,0c0,0,0,0,0,0c0,0,0,0,0,0c0,0,0,0,0,0c0,0,0,0,0,0c0,0,0,0,0,0
		c0,0,0,0,0,0c0,0,0,0,0,0c0,0,0,0,0,0c0,0,0,0,0,0c0,0,0,0,0,0c0,0,0,0,0,0c0,0,0,0,0,0c0,0,0,0,0,0c0,0,0,0,0.1,0c0,0,0,0,0-0.1
		c0,0,0,0,0,0c0,0,0,0,0.1,0c0.1,0,0.1,0,0.1,0c0,0,0.1,0,0.1,0c0,0,0,0,0,0c0,0,0,0,0,0c0,0,0,0,0,0c0,0,0,0,0,0c0,0,0,0,0,0
		c0,0,0,0,0,0c0,0,0,0,0,0c0,0,0,0,0,0c0,0,0,0,0,0c0,0,0,0,0,0c0,0,0,0,0,0c0,0,0,0,0,0c0,0,0,0,0,0c0,0,0,0,0,0c0,0,0,0,0,0
		c0,0,0,0,0,0c0,0,0,0,0,0c0,0,0,0,0,0c0,0,0,0,0,0c0,0,0,0,0,0c0,0,0,0,0,0c0,0,0,0,0,0c0,0,0,0,0,0c0,0,0,0,0,0c0,0,0,0,0,0h0
		c0,0,0,0,0,0c0,0,0,0,0,0c0,0,0,0,0,0C7.1,5.7,7.1,5.7,7.1,5.6C7.1,5.7,7.1,5.7,7.1,5.6C7.1,5.7,7.1,5.7,7.1,5.6
		C7,5.7,7,5.7,6.9,5.6C7,5.6,7.1,5.6,7.1,5.6"/>
	<path class="st0" d="M6.2,6.1C6.2,6.1,6.2,6.1,6.2,6.1C6.2,6.1,6.2,6.1,6.2,6.1C6.2,6.1,6.2,6.1,6.2,6.1C6.2,6,6.2,6,6.2,6.1
		C6.2,6,6.2,6,6.2,6.1C6.2,6,6.2,6,6.2,6.1C6.2,6,6.2,6,6.2,6.1L6.2,6.1C6.2,6,6.2,6.1,6.2,6.1C6.2,6.1,6.2,6.1,6.2,6.1
		C6.2,6.1,6.2,6.1,6.2,6.1C6.2,6.1,6.2,6.1,6.2,6.1C6.2,6.1,6.2,6.1,6.2,6.1C6.2,6.1,6.2,6.1,6.2,6.1C6.2,6.1,6.2,6.1,6.2,6.1
		C6.2,6.1,6.2,6.1,6.2,6.1C6.2,6.1,6.2,6.1,6.2,6.1 M6.2,6C6.2,6,6.2,6,6.2,6C6.2,6,6.2,6,6.2,6C6.2,6,6.2,6,6.2,6 M6.2,6
		C6.2,6,6.3,6,6.2,6C6.3,6,6.3,6,6.2,6C6.2,6,6.2,6,6.2,6 M7.1,6.1c0,0,0-0.1-0.2-0.1c-0.1,0-0.5,0-0.5,0c0,0,0.1,0,0.2,0
		c0,0,0,0,0,0C6.8,6.1,7,6,7.1,6C7,5.9,6.9,6,6.8,6c0.1,0,0.1,0,0.1,0c-0.1,0-0.2,0-0.3,0c0,0,0,0,0,0C6.5,6,6.4,6,6.4,6
		c0,0.1,0.4,0,0.5,0C7,6.1,7,6.1,7.1,6.1c0,0-0.1,0-0.2,0c-0.1,0-0.5,0-0.6,0c0,0,0-0.1,0-0.1c0,0,0,0,0,0c0,0,0,0,0,0c0,0,0,0,0,0
		c0,0,0,0,0,0c0,0,0,0,0,0c0,0,0,0,0,0c0,0,0,0,0,0c0,0,0,0,0,0c0,0,0,0,0,0c0,0,0,0,0,0c0,0,0,0,0,0c0,0,0,0,0,0c0,0,0,0,0,0
		c0,0,0,0,0,0c0,0,0,0,0,0l0,0c0,0,0,0,0,0c0,0,0,0,0,0c0,0,0,0-0.1,0c0,0,0,0,0,0C6,6,6,6,6,6c0,0,0,0,0,0c0,0,0,0,0,0c0,0,0,0,0,0
		c0,0,0,0,0,0c0,0,0,0,0,0c0,0,0,0,0,0c0,0,0,0,0,0c0,0,0,0,0,0c0,0,0,0,0,0c0,0,0,0,0,0c0,0,0,0,0,0c0,0,0,0,0,0c0,0,0,0,0,0
		c0,0,0,0,0,0c0,0,0,0,0,0c0,0,0,0,0,0c0,0,0,0,0,0c0,0,0,0,0,0c0,0,0,0,0,0c0,0,0,0,0,0c0,0,0,0,0,0c0,0,0,0,0,0c0,0,0,0,0,0
		c0,0,0,0,0,0c0,0,0,0,0,0c0,0,0,0,0,0c0,0,0,0,0,0c0,0,0,0,0,0c0,0,0,0,0,0c0,0,0,0,0,0c0,0,0,0,0,0c0,0,0,0.1,0,0c0,0,0,0,0,0
		c0,0,0,0,0,0c0,0,0,0,0,0c0,0,0,0,0,0c0,0,0,0,0,0c0,0,0,0,0,0c0,0,0,0,0.1,0.1c0,0,0,0,0,0c0,0,0,0,0,0c0,0,0,0,0,0
		c0,0-0.1,0-0.1,0c0,0-0.1,0-0.1,0c0,0,0,0,0,0c0,0,0,0,0,0c0,0,0,0,0,0c0,0,0,0,0,0c0,0,0,0,0,0c0,0,0,0,0,0c0,0,0,0,0,0
		c0,0,0,0,0,0c0,0,0,0,0,0c0,0,0,0,0,0c0,0,0,0,0,0c0,0,0,0,0,0c0,0,0,0,0,0c0,0,0,0,0,0c0,0,0,0,0,0c0,0,0,0,0,0c0,0,0,0,0,0
		c0,0,0,0,0,0c0,0,0,0,0,0c0,0,0,0,0,0c0,0,0,0,0,0c0,0,0,0,0,0c0,0,0,0,0,0c0,0,0,0,0,0c0,0,0,0,0,0c0,0,0,0,0,0c0,0,0,0,0,0
		c0,0,0,0,0,0c0,0,0,0,0,0c0,0,0,0,0,0c0,0,0,0,0,0c0,0,0,0,0,0c0,0,0,0,0,0c0,0,0,0,0,0c0,0,0,0,0,0c0,0,0,0,0,0c0,0,0,0,0,0
		c0,0,0,0,0,0c0,0,0,0,0,0c0,0,0.1,0,0.1,0c0,0,0,0,0,0c0,0,0,0,0,0c0,0,0,0,0,0c0,0,0,0,0,0l0.1,0c0,0,0,0,0,0c0,0,0,0,0,0l0,0
		c0,0,0,0,0,0c0.2,0,0.1-0.1,0.3-0.1c0,0,0,0,0,0c0,0,0,0.1,0,0.1c0,0,0,0,0,0c0,0,0,0,0,0c0,0,0,0,0,0c0,0,0-0.1-0.1,0c0,0,0,0,0,0
		c0,0,0,0,0,0c0,0,0,0,0,0c0,0,0,0,0,0c0,0,0,0,0,0c0,0,0,0,0,0c0,0,0,0,0,0c0,0,0,0,0,0c0,0,0,0,0,0c0,0,0,0,0,0c0,0,0,0,0,0
		c0,0,0,0,0,0c0,0,0,0,0,0c0,0,0,0,0,0c0,0,0,0,0,0c0,0,0,0,0,0c0,0,0,0,0,0c0,0,0,0,0,0c0,0,0,0,0,0c0,0,0,0,0,0c0,0,0,0,0,0
		c0,0,0,0,0,0c0,0,0,0,0,0c0,0,0,0,0,0c0,0,0,0,0,0c0,0,0,0,0,0c0,0,0,0,0,0c0,0,0,0,0.1,0c0,0,0,0,0-0.1c0,0,0,0,0,0c0,0,0,0,0.1,0
		c0.1,0,0.1,0,0.1,0c0,0,0.1,0,0.1,0c0,0,0,0,0,0c0,0,0,0,0,0c0,0,0,0,0,0c0,0,0,0,0,0c0,0,0,0,0,0c0,0,0,0,0,0c0,0,0,0,0,0
		c0,0,0,0,0,0c0,0,0,0,0,0c0,0,0,0,0,0c0,0,0,0,0,0c0,0,0,0,0,0c0,0,0,0,0,0c0,0,0,0,0,0c0,0,0,0,0,0c0,0,0,0,0,0c0,0,0,0,0,0
		c0,0,0,0,0,0c0,0,0,0,0,0c0,0,0,0,0,0c0,0,0,0,0,0c0,0,0,0,0,0c0,0,0,0,0,0c0,0,0,0,0,0c0,0,0,0,0,0v0c0,0,0,0,0,0c0,0,0,0,0,0
		c0,0,0,0,0,0C7.1,6.2,7.1,6.2,7.1,6.1C7.1,6.2,7,6.2,7.1,6.1C7,6.2,7,6.2,7.1,6.1C7,6.2,6.9,6.2,6.9,6.2C6.9,6.2,7.1,6.1,7.1,6.1"
		/>
	<path class="st0" d="M7.9,7L7.9,7L7.9,7 M7.8,6.8C7.8,6.8,7.8,6.8,7.8,6.8L7.8,6.8 M7.8,6.8L7.8,6.8L7.8,6.8z M7.8,6.8
		C7.8,6.8,7.8,6.8,7.8,6.8C7.8,6.8,7.8,6.8,7.8,6.8C7.8,6.8,7.8,6.8,7.8,6.8C7.8,6.8,7.8,6.8,7.8,6.8C7.8,6.8,7.8,6.8,7.8,6.8
		C7.8,6.8,7.8,6.8,7.8,6.8C7.8,6.8,7.8,6.8,7.8,6.8L7.8,6.8C7.9,6.8,7.9,6.8,7.8,6.8C7.9,6.8,7.9,6.8,7.8,6.8
		C7.9,6.8,7.9,6.8,7.8,6.8C7.8,6.8,7.8,6.8,7.8,6.8C7.8,6.8,7.8,6.8,7.8,6.8C7.8,6.8,7.8,6.8,7.8,6.8C7.8,6.8,7.8,6.9,7.8,6.8
		C7.8,6.9,7.8,6.9,7.8,6.8C7.8,6.9,7.8,6.9,7.8,6.8 M7.8,6.8C7.8,6.8,7.8,6.8,7.8,6.8C7.8,6.8,7.8,6.8,7.8,6.8
		C7.8,6.7,7.8,6.8,7.8,6.8 M7.9,6.8C7.9,6.8,7.9,6.8,7.9,6.8C7.9,6.8,7.9,6.8,7.9,6.8C7.9,6.8,7.9,6.8,7.9,6.8 M8.7,7
		C8.7,7,8.7,7,8.7,7C8.7,7,8.7,7,8.7,7C8.7,7,8.7,7,8.7,7C8.7,6.9,8.7,6.9,8.7,7c-0.1,0-0.1,0-0.2-0.1c0,0,0,0,0,0
		c0.1,0,0.2,0,0.2-0.1c0,0,0-0.1-0.2-0.1c-0.1,0-0.5,0-0.5,0c0,0,0.1,0,0.2,0c0,0,0,0,0,0c0.1,0,0.3-0.1,0.4,0c-0.1,0-0.2,0-0.3,0
		c0.1,0,0.1,0,0.1,0c0,0-0.2,0-0.3,0c0,0,0,0,0,0c-0.1,0-0.2,0-0.2,0.1c0,0.1,0.4,0,0.5,0c0.1,0,0.1,0,0.1,0c0,0-0.1,0-0.1,0
		c-0.1,0-0.5,0-0.6,0c0,0,0-0.1,0-0.1c0,0,0,0,0,0c0,0,0,0,0,0c0,0,0,0,0,0c0,0,0,0,0,0c0,0,0,0,0,0c0,0,0,0,0,0c0,0,0,0,0,0
		c0,0,0,0,0,0c0,0,0,0,0,0c0,0,0,0,0,0c0,0,0,0,0,0c0,0,0,0,0,0c0,0,0,0,0,0c0,0,0,0,0,0c0,0,0,0,0,0l0,0c0,0,0,0,0,0c0,0,0,0,0,0
		c0,0,0,0-0.1,0c0,0,0,0,0,0c0,0,0,0,0-0.1c0,0,0,0,0,0c0,0,0,0,0,0c0,0,0,0,0,0c0,0,0,0,0,0c0,0,0,0,0,0c0,0,0,0,0,0c0,0,0,0,0,0
		c0,0,0,0,0,0c0,0,0,0,0,0c0,0,0,0,0,0c0,0,0,0,0,0c0,0,0,0,0,0c0,0,0,0,0,0c0,0,0,0,0,0c0,0,0,0,0,0c0,0,0,0,0,0c0,0,0,0,0,0
		c0,0,0,0,0,0c0,0,0,0,0,0c0,0,0,0,0,0c0,0,0,0,0,0c0,0,0,0,0,0c0,0,0,0,0,0c0,0,0,0,0,0c0,0,0,0,0,0c0,0,0,0,0,0c0,0,0,0,0,0
		c0,0,0,0,0,0c0,0,0,0,0,0c0,0,0,0,0,0c0,0,0,0,0,0c0,0,0,0.1,0,0c0,0,0,0,0,0c0,0,0,0,0,0c0,0,0,0,0,0c0,0,0,0,0,0c0,0,0,0,0,0
		c0,0,0,0,0,0c0,0,0,0,0.1,0.1c0,0,0,0,0,0c0,0,0,0,0,0l0,0c0,0,0,0,0,0c0,0,0,0-0.1,0c0,0-0.1,0-0.1,0c0,0,0,0,0,0c0,0,0,0,0,0
		c0,0,0,0,0,0c0,0,0,0,0,0c0,0,0,0,0,0c0,0,0,0,0,0c0,0,0,0,0,0c0,0,0,0,0,0c0,0,0,0,0,0c0,0,0,0,0,0c0,0,0,0,0,0h0c0,0,0,0,0,0
		c0,0,0,0,0,0c0,0,0,0,0,0c0,0,0,0,0,0c0,0,0,0,0,0c0,0,0,0,0,0c0,0,0,0,0,0c0,0,0,0,0,0c0,0,0,0,0,0c0,0,0,0,0,0c0,0,0,0,0,0
		c0,0,0,0,0,0c0,0,0,0,0,0c0,0,0,0,0,0c0,0,0,0,0,0c0,0,0,0,0,0c0,0,0,0,0,0c0,0,0,0,0,0c0,0,0,0,0,0c0,0,0,0,0,0c0,0,0,0,0,0
		c0,0,0,0,0,0c0,0,0,0,0,0c0,0,0,0,0,0c0,0,0,0,0,0c0,0,0,0,0,0c0,0,0,0,0,0c0-0.1,0,0,0.1-0.1c0,0,0,0,0,0c0,0,0,0,0,0
		c0,0,0.1,0,0.1,0c0,0,0,0,0,0c0,0,0,0,0,0C8.1,7.1,8,7,8.3,7c0,0,0,0,0,0c0,0,0,0.1,0,0.1c0,0,0,0,0,0c0,0,0,0,0,0c0,0,0,0,0,0
		c0,0,0-0.1-0.1,0c0,0,0,0,0,0c0,0,0,0,0,0c0,0,0,0,0,0v0c0,0,0,0,0,0c0,0,0,0,0,0c0,0,0,0,0,0c0,0,0,0,0,0c0,0,0,0,0,0c0,0,0,0,0,0
		c0,0,0,0,0,0c0,0,0,0,0,0c0,0,0,0,0,0c0,0,0,0,0,0c0,0,0,0,0,0c0,0,0,0,0,0c0,0,0,0,0,0c0,0,0,0,0,0c0,0,0,0,0,0c0,0,0,0,0,0
		c0,0,0,0,0,0c0,0,0,0,0,0c0,0,0,0,0,0c0,0,0,0,0,0c0,0,0,0,0,0c0,0,0,0,0,0c0,0,0,0,0,0c0,0,0,0,0.1,0c0,0,0,0,0-0.1c0,0,0,0,0,0
		c0,0,0,0,0.1,0c0.1,0,0.1,0,0.1,0C8.6,7,8.6,7,8.7,7C8.6,7,8.6,7,8.7,7C8.6,7,8.6,7,8.7,7C8.6,7,8.6,7,8.6,7c0,0,0,0,0,0
		c0,0,0,0,0,0c0,0,0,0,0,0v0C8.6,7.1,8.6,7.1,8.7,7C8.6,7.1,8.6,7.1,8.7,7C8.6,7.1,8.6,7.1,8.6,7.1c0,0,0,0,0,0c0,0,0,0,0,0
		c0,0,0,0,0,0h0c0,0,0,0,0,0c0,0,0,0,0,0c0,0,0,0,0,0c0,0,0,0,0,0c0,0,0,0,0,0c0,0,0,0,0,0c0,0,0,0,0,0C8.7,7.1,8.7,7.1,8.7,7
		C8.7,7.1,8.7,7.1,8.7,7C8.7,7,8.7,7,8.7,7C8.7,7,8.7,7,8.7,7C8.7,7,8.7,7,8.7,7C8.7,7,8.7,7,8.7,7"/>
	<path class="st0" d="M7.9,7.3C7.8,7.3,7.8,7.3,7.9,7.3C7.9,7.3,7.9,7.3,7.9,7.3C7.9,7.3,7.9,7.3,7.9,7.3 M7.8,7.3
		C7.8,7.3,7.8,7.3,7.8,7.3C7.8,7.3,7.8,7.3,7.8,7.3C7.8,7.3,7.8,7.3,7.8,7.3C7.8,7.3,7.8,7.3,7.8,7.3C7.8,7.4,7.8,7.4,7.8,7.3
		C7.8,7.4,7.8,7.4,7.8,7.3C7.8,7.4,7.8,7.4,7.8,7.3C7.8,7.3,7.8,7.3,7.8,7.3C7.8,7.3,7.8,7.3,7.8,7.3C7.8,7.3,7.8,7.3,7.8,7.3
		C7.8,7.3,7.8,7.3,7.8,7.3C7.8,7.3,7.8,7.3,7.8,7.3C7.8,7.3,7.8,7.3,7.8,7.3C7.8,7.3,7.8,7.3,7.8,7.3L7.8,7.3
		C7.8,7.3,7.8,7.3,7.8,7.3C7.8,7.3,7.8,7.3,7.8,7.3 M7.8,7.3C7.8,7.3,7.8,7.3,7.8,7.3C7.8,7.3,7.8,7.3,7.8,7.3
		C7.8,7.2,7.8,7.3,7.8,7.3 M8.2,7.3C8.2,7.3,8.2,7.3,8.2,7.3c0.2,0.1,0.3,0,0.4,0c-0.1,0-0.2,0-0.3,0c0.1,0,0.1,0,0.1,0
		C8.4,7.3,8.2,7.2,8.2,7.3C8.2,7.2,8.2,7.2,8.2,7.3c-0.1,0-0.1,0-0.1,0c0,0.1,0.3,0,0.4,0c0.1,0,0.1,0,0.1,0c0,0-0.1,0-0.2,0
		c-0.1,0-0.3,0-0.5,0c0,0,0-0.1,0-0.1c0,0,0,0,0,0c0,0,0,0,0,0c0,0,0,0,0,0c0,0,0,0,0,0c0,0,0,0,0,0c0,0,0,0,0,0c0,0,0,0,0,0
		c0,0,0,0,0,0c0,0,0,0,0,0c0,0,0,0,0,0c0,0,0,0,0,0c0,0,0,0,0,0c0,0,0,0,0,0c0,0,0,0,0,0c0,0,0,0,0,0l0,0c0,0,0,0,0,0c0,0,0,0-0.1,0
		c0,0,0,0,0,0c0,0,0,0,0-0.1c0,0,0,0,0,0c0,0,0,0,0,0c0,0,0,0,0,0c0,0,0,0,0,0c0,0,0,0,0,0c0,0,0,0,0,0c0,0,0,0,0,0c0,0,0,0,0,0
		c0,0,0,0,0,0c0,0,0,0,0,0c0,0,0,0,0,0c0,0,0,0,0,0c0,0,0,0,0,0c0,0,0,0,0,0c0,0,0,0,0,0c0,0,0,0,0,0c0,0,0,0,0,0c0,0,0,0,0,0
		c0,0,0,0,0,0c0,0,0,0,0,0c0,0,0,0,0,0c0,0,0,0,0,0c0,0,0,0,0,0c0,0,0,0,0,0c0,0,0,0,0,0c0,0,0,0,0,0c0,0,0,0,0,0c0,0,0,0,0,0
		c0,0,0,0,0,0c0,0,0,0,0,0c0,0,0,0,0,0c0,0,0,0.1,0,0c0,0,0,0,0,0c0,0,0,0,0,0c0,0,0,0,0,0c0,0,0,0,0,0c0,0,0,0,0,0c0,0,0,0,0,0
		c0,0,0,0,0,0c0,0,0,0,0,0l0,0c0,0,0,0.1,0,0.1c0,0,0,0-0.1,0c0,0-0.1,0-0.1,0c0,0,0,0,0,0c0,0,0,0,0,0h0c0,0,0,0,0,0c0,0,0,0,0,0
		c0,0,0,0,0,0c0,0,0,0,0,0c0,0,0,0,0,0c0,0,0,0,0,0c0,0,0,0,0,0c0,0,0,0,0,0c0,0,0,0,0,0c0,0,0,0,0,0c0,0,0,0,0,0c0,0,0,0,0,0
		c0,0,0,0,0,0c0,0,0,0,0,0c0,0,0,0,0,0c0,0,0,0,0,0c0,0,0,0,0,0c0,0,0,0,0,0c0,0,0,0,0,0c0,0,0,0,0,0c0,0,0,0,0,0c0,0,0,0,0,0
		c0,0,0,0,0,0c0,0,0,0,0,0c0,0,0,0,0,0c0,0,0,0,0,0c0,0,0,0,0,0c0,0,0,0,0,0c0,0,0,0,0,0c0,0,0,0,0,0c0,0,0,0,0,0c0,0,0,0,0,0
		c0,0,0,0,0,0c0,0,0,0,0,0c0,0,0,0,0,0c0,0,0,0,0,0c0,0,0,0,0.1-0.1c0,0,0,0,0,0c0,0,0,0,0,0c0,0,0.1,0,0.1,0c0,0,0,0,0,0
		c0,0,0,0,0,0c0,0,0,0,0,0c0.1,0,0-0.1,0.2-0.1c0,0,0,0,0,0c0,0,0,0.1,0,0.1c0,0,0,0,0,0c0,0,0,0,0,0c0,0,0,0,0,0c0,0,0,0-0.1,0
		c0,0,0,0,0,0c0,0,0,0,0,0c0,0,0,0,0,0c0,0,0,0,0,0c0,0,0,0,0,0c0,0,0,0,0,0c0,0,0,0,0,0c0,0,0,0,0,0c0,0,0,0,0,0c0,0,0,0,0,0
		c0,0,0,0,0,0c0,0,0,0,0,0c0,0,0,0,0,0c0,0,0,0,0,0c0,0,0,0,0,0c0,0,0,0,0,0c0,0,0,0,0,0c0,0,0,0,0,0c0,0,0,0,0,0c0,0,0,0,0,0
		c0,0,0,0,0,0c0,0,0,0,0,0c0,0,0,0,0,0c0,0,0,0,0,0c0,0,0,0,0,0c0,0,0,0,0,0c0,0,0,0,0,0c0,0,0,0,0.1,0c0,0,0,0,0-0.1c0,0,0,0,0,0
		c0,0,0,0,0.1,0c0.1,0,0.1,0,0.1,0c0,0,0.1,0,0.1,0c0,0,0,0,0,0c0,0,0,0,0,0c0,0,0,0,0,0c0,0,0,0,0,0c0,0,0,0,0,0c0,0,0,0,0,0
		c0,0,0,0,0,0c0,0,0,0,0,0c0,0,0,0,0,0c0,0,0,0,0,0c0,0,0,0,0,0c0,0,0,0,0,0c0,0,0,0,0,0c0,0,0,0,0,0c0,0,0,0,0,0c0,0,0,0,0,0
		c0,0,0,0,0,0c0,0,0,0,0,0c0,0,0,0,0,0c0,0,0,0,0,0c0,0,0,0,0,0c0,0,0,0,0,0c0,0,0,0,0,0c0,0,0,0,0,0c0,0,0,0,0,0c0,0,0,0,0,0
		c0,0,0,0,0,0c0,0,0,0,0,0c0,0,0,0,0,0c0,0,0,0,0,0c0,0,0,0,0,0c0,0-0.1,0-0.1,0c0,0,0,0,0,0c0.1,0,0.2,0,0.2-0.1c0,0,0-0.1-0.1-0.1
		c-0.1,0-0.4,0-0.4,0C8.1,7.3,8.1,7.3,8.2,7.3"/>
	<path class="st0" d="M7.7,7.9C7.7,7.8,7.7,7.8,7.7,7.9C7.8,7.8,7.8,7.8,7.7,7.9C7.8,7.8,7.8,7.8,7.7,7.9C7.8,7.8,7.8,7.8,7.7,7.9
		C7.8,7.8,7.7,7.8,7.7,7.9C7.7,7.8,7.7,7.8,7.7,7.9C7.8,7.8,7.8,7.8,7.7,7.9L7.7,7.9C7.8,7.8,7.8,7.8,7.7,7.9
		C7.8,7.8,7.8,7.8,7.7,7.9C7.8,7.8,7.8,7.8,7.7,7.9C7.8,7.8,7.8,7.8,7.7,7.9C7.8,7.8,7.8,7.8,7.7,7.9C7.8,7.8,7.8,7.8,7.7,7.9
		C7.8,7.9,7.8,7.9,7.7,7.9C7.8,7.9,7.8,7.9,7.7,7.9C7.7,7.9,7.7,7.9,7.7,7.9 M7.8,7.8C7.8,7.8,7.8,7.8,7.8,7.8
		C7.7,7.8,7.7,7.8,7.8,7.8C7.7,7.8,7.8,7.8,7.8,7.8 M7.8,7.8C7.8,7.8,7.8,7.8,7.8,7.8C7.8,7.8,7.8,7.8,7.8,7.8
		C7.8,7.8,7.8,7.8,7.8,7.8 M8.1,7.8C8.1,7.8,8.1,7.8,8.1,7.8c0.2,0.1,0.3,0,0.4,0c-0.1,0-0.2,0-0.3,0c0.1,0,0.1,0,0.1,0
		C8.3,7.8,8.1,7.7,8.1,7.8C8.1,7.7,8.1,7.7,8.1,7.8C8,7.8,8,7.8,8.1,7.8C8,7.9,8.3,7.8,8.3,7.9c0,0-0.1,0-0.2,0c-0.1,0-0.2,0-0.3,0
		v0c0,0,0-0.1,0-0.1c0,0,0,0,0,0c0,0,0,0,0,0c0,0,0,0,0,0c0,0,0,0,0,0c0,0,0,0,0,0c0,0,0,0,0,0c0,0,0,0,0,0c0,0,0,0,0,0c0,0,0,0,0,0
		c0,0,0,0,0,0c0,0,0,0,0,0c0,0,0,0,0,0c0,0,0,0,0,0c0,0,0,0,0,0c0,0,0,0.1,0,0.1c0,0-0.1-0.1-0.1-0.1c0,0,0,0,0,0c0,0,0,0,0-0.1
		c0,0,0,0,0,0c0,0,0,0,0,0c0,0,0,0,0,0c0,0,0,0,0,0c0,0,0,0,0,0c0,0,0,0,0,0c0,0,0,0,0,0c0,0,0,0,0,0c0,0,0,0,0,0c0,0,0,0,0,0
		c0,0,0,0,0,0c0,0,0,0,0,0c0,0,0,0,0,0c0,0,0,0,0,0c0,0,0,0,0,0c0,0,0,0,0,0c0,0,0,0,0,0c0,0,0,0,0,0c0,0,0,0,0,0c0,0,0,0,0,0
		c0,0,0,0,0,0c0,0,0,0,0,0c0,0,0,0,0,0c0,0,0,0,0,0c0,0,0,0,0,0c0,0,0,0,0,0c0,0,0,0,0,0c0,0,0,0,0,0c0,0,0,0,0,0c0,0,0,0,0,0
		c0,0,0,0,0,0c0,0,0,0.1,0,0c0,0,0,0,0,0c0,0,0,0,0,0c0,0,0,0,0,0c0,0,0,0,0,0c0,0,0,0,0,0c0,0,0,0,0,0c0,0,0,0,0,0.1c0,0,0,0,0,0
		c0,0,0,0,0,0c0,0-0.1,0-0.1,0c0,0,0,0,0,0l0,0c0,0,0,0,0,0c0,0,0,0,0,0c0,0,0,0,0,0c0,0,0,0,0,0c0,0,0,0,0,0c0,0,0,0,0,0
		c0,0,0,0,0,0c0,0,0,0,0,0c0,0,0,0,0,0c0,0,0,0,0,0c0,0,0,0,0,0c0,0,0,0,0,0c0,0,0,0,0,0c0,0,0,0,0,0c0,0,0,0,0,0c0,0,0,0,0,0
		c0,0,0,0,0,0c0,0,0,0,0,0c0,0,0,0,0,0c0,0,0,0,0,0c0,0,0,0,0,0c0,0,0,0,0,0c0,0,0,0,0,0c0,0,0,0,0,0c0,0,0,0,0,0c0,0,0,0,0,0
		c0,0,0,0,0,0c0,0,0,0,0,0c0,0,0,0,0,0c0,0,0,0,0,0c0,0,0,0,0,0c0,0,0,0,0,0c0,0,0,0,0,0c0,0,0,0,0,0c0,0,0,0,0,0c0,0,0,0,0,0
		c0,0,0,0,0,0c0,0,0,0,0,0c0,0,0,0,0,0c0,0,0,0,0,0c0,0,0,0,0,0c0,0,0,0,0.1,0c0,0,0,0,0,0c0,0,0,0,0,0c0,0,0,0,0,0c0,0,0,0,0-0.1
		c0,0,0,0,0,0c0,0,0.1,0,0.1,0c0,0,0,0,0,0.1c0,0,0,0,0,0c0,0,0,0,0,0c0,0,0,0,0,0c0,0,0,0-0.1,0c0,0,0,0,0,0c0,0,0,0,0,0
		c0,0,0,0,0,0v0c0,0,0,0,0,0c0,0,0,0,0,0c0,0,0,0,0,0c0,0,0,0,0,0c0,0,0,0,0,0c0,0,0,0,0,0c0,0,0,0,0,0c0,0,0,0,0,0c0,0,0,0,0,0
		c0,0,0,0,0,0c0,0,0,0,0,0c0,0,0,0,0,0c0,0,0,0,0,0c0,0,0,0,0,0c0,0,0,0,0,0c0,0,0,0,0,0c0,0,0,0,0,0c0,0,0,0,0,0c0,0,0,0,0,0
		c0,0,0,0,0,0c0,0,0,0,0,0c0,0,0,0,0,0c0,0,0,0,0,0c0,0,0,0,0,0c0,0,0,0,0,0C8,8.1,8,8,8,8c0,0,0.1,0,0.1,0c0,0,0.1,0,0.1,0s0,0,0,0
		c0,0,0,0,0,0h0c0,0,0,0,0,0c0,0,0,0,0,0c0,0,0,0,0,0c0,0,0,0,0,0c0,0,0,0,0,0c0,0,0,0,0,0c0,0,0,0,0,0c0,0,0,0,0,0c0,0,0,0,0,0
		c0,0,0,0,0,0c0,0,0,0,0,0c0,0,0,0,0,0c0,0,0,0,0,0c0,0,0,0,0,0c0,0,0,0,0,0c0,0,0,0,0,0c0,0,0,0,0,0c0,0,0,0,0,0c0,0,0,0,0,0
		c0,0,0,0,0,0c0,0,0,0,0,0c0,0,0,0,0,0c0,0,0,0,0,0c0,0,0,0,0,0v0c0,0,0,0,0,0c0,0,0,0,0,0c0,0,0,0,0,0c0,0,0,0,0,0c0,0,0,0,0,0
		c0,0,0,0,0,0c0,0-0.1,0-0.1-0.1c0,0,0,0,0,0c0.1,0,0.2,0,0.2-0.1C8.4,7.8,8,7.9,8.1,7.8C8,7.8,8,7.8,8.1,7.8"/>
	<path class="st0" d="M2.2,1.5C2.2,1.4,2.2,1.4,2.2,1.5C2.1,1.4,2,1.4,2,1.5C2,1.5,2.1,1.6,2.2,1.5C2.2,1.6,2.2,1.5,2.2,1.5"/>
	<path class="st0" d="M2.2,1.2C2.2,1.2,2.1,1.2,2.2,1.2C2,1.2,2,1.2,2,1.2C2,1.3,2,1.3,2.2,1.2C2.1,1.3,2.2,1.3,2.2,1.2"/>
	<path class="st0" d="M2.2,1.1C2.3,1.1,2.3,1.1,2.2,1.1C2.3,1,2.3,1,2.2,1S2.1,1,2.2,1.1C2.1,1.1,2.2,1.1,2.2,1.1"/>
	<path class="st0" d="M2.5,1.1C2.5,1.1,2.6,1.1,2.5,1.1C2.6,1,2.5,1,2.5,1C2.4,1,2.4,1,2.5,1.1C2.4,1.1,2.4,1.1,2.5,1.1"/>
	<path class="st0" d="M3.5,1c0,0,0.1,0,0.1,0c0,0,0-0.1,0-0.1c0,0-0.1,0-0.1,0C3.4,0.9,3.4,0.9,3.5,1"/>
	<path class="st0" d="M3.4,0.8c0,0,0-0.1,0-0.1c0,0-0.1,0-0.1,0c0,0,0,0.1,0,0.1C3.4,0.8,3.4,0.8,3.4,0.8"/>
	<path class="st0" d="M3.2,0.7c0,0,0-0.1,0-0.1c0,0-0.1,0-0.1,0c0,0,0,0.1,0,0.1C3.1,0.8,3.2,0.8,3.2,0.7"/>
	<path class="st0" d="M3,0.9c0,0,0-0.1,0-0.1c0,0-0.1,0-0.1,0c0,0,0,0.1,0,0.1C2.9,0.9,3,0.9,3,0.9"/>
	<path class="st0" d="M2.5,0.8l0.1,0.2l0.1-0.1c0,0,0,0,0,0c0,0.1,0,0.1,0,0.2c0,0.1,0,0.1,0.1,0.1c0.1,0,0.1,0,0.1-0.1
		c0,0,0-0.1-0.1-0.1c0,0-0.1-0.1-0.1-0.1c0,0,0,0,0,0l0.1,0L2.8,0.6L2.7,0.7c0,0,0,0,0,0l0-0.2L2.5,0.6l0.1,0.1c0,0,0,0,0,0L2.5,0.8
		z"/>
	<path class="st0" d="M3.5,1c0,0.1,0,0.1,0,0.1C3.5,1.2,3.5,1.1,3.5,1l0,0.2c0,0,0-0.1,0.1-0.1c0,0.1-0.1,0.2-0.1,0.2
		c-0.1,0-0.1,0-0.1-0.1c0-0.1,0-0.1,0.1,0c0-0.1-0.1-0.1-0.1-0.1C3.3,1.1,3.3,1,3.2,1c-0.1,0.1,0,0.2,0,0.3c-0.1,0-0.2,0-0.1,0.1
		c0-0.1,0.1-0.1,0.1,0c0,0.1,0,0.1-0.1,0.1C3,1.5,3,1.5,2.9,1.4c0,0,0.1,0,0.2,0L3,1.2C3,1.3,3,1.3,2.9,1.4c0-0.1,0-0.2,0-0.2
		L2.7,1.3c0,0,0.1,0.1,0.1,0.1c0,0-0.1,0-0.2,0l0.1,0.2c0-0.1,0.1-0.1,0.1-0.1c0,0.1,0.1,0.2-0.1,0.2c-0.1,0-0.2,0-0.2,0
		c0-0.1,0-0.1,0.1-0.1c0-0.1-0.1-0.1-0.1,0c0-0.1,0-0.2-0.2-0.2c0,0.1,0,0.2,0.1,0.2c-0.1,0-0.1,0.1,0,0.1c0-0.1,0.1-0.1,0.1,0
		c0,0,0,0.1,0,0.1c0,0-0.1,0-0.2-0.1c0,0,0.1,0,0.1,0L2.3,1.5c0,0.1,0,0.1,0,0.1c0,0,0-0.1,0-0.1L2.2,1.6c0.1,0.1,0.2,0.1,0.3,0.3
		C2.6,1.9,2.9,1.7,3,1.7c0.2-0.1,0.4-0.1,0.6-0.2c0-0.2,0-0.4,0-0.5L3.5,1z"/>
	<path class="st0" d="M3.7,2.2c-0.1,0.1-0.3,0-0.4-0.1C3.6,2,3.7,1.9,3.9,1.9C3.8,2,3.8,2.1,3.7,2.2 M3.7,3.5
		C3.6,3.5,3.4,3.4,3.4,3.3c0-0.1-0.1-0.2,0-0.2C3.5,3,3.5,3,3.4,2.9c0-0.1-0.2,0-0.3,0c0.1-0.1,0.1-0.2,0-0.1C3.1,2.7,3.1,2.9,3,2.9
		c0,0,0-0.1,0-0.1c0-0.1,0-0.1,0.1-0.1l0.5-0.2c0.1,0,0.1,0,0.1,0c0,0,0.1,0.1,0.1,0.1c0,0-0.1-0.1-0.2,0c-0.1,0,0,0.1,0.1,0.1
		C3.6,2.7,3.5,2.8,3.5,2.9C3.5,3,3.6,3,3.7,3c0.1,0,0.1,0.1,0.1,0.2C3.9,3.2,3.9,3.4,3.7,3.5 M2.8,2.6c-0.1,0-0.1-0.1-0.3-0.2
		c0.2,0,0.3-0.1,0.5-0.2C3.1,2.4,3,2.5,2.8,2.6 M5.4,6.6c0-0.1-0.1-0.2-0.2-0.3c0-0.1,0-0.3-0.2-0.4C4.9,5.7,4.4,5.1,4.2,4.9
		c0,0,0.1,0,0.2,0.1C4.5,5,4.6,5.1,4.7,5.2c0.1-0.4,0.3-0.6,0.6-0.9c0,0,0.1-0.1,0.1-0.1c-0.1,0-0.2,0-0.3,0.1c0-0.2,0-0.3-0.1-0.4
		c0-0.2,0-0.5-0.5-0.8c0.2,0.1,0.4,0.3,0.6,0.1c-0.2,0-0.2-0.4-0.8-0.7C4.5,2.6,4.7,3,5,2.8c-0.3,0-0.3-0.5-0.8-0.6
		c0.2,0,0.3,0.1,0.5-0.1C4.5,2.1,4.4,2,4.2,1.9c0.1-0.2,0-0.3,0-0.5c-0.1,0-0.2,0-0.3,0.1c0-0.1-0.1-0.1-0.2-0.1c0,0,0,0.1,0,0.1
		c-0.1,0-0.4,0.1-0.6,0.2C2.8,1.9,2.6,2,2.5,2.1c0,0-0.1,0-0.1-0.1C2.4,2,2.3,2.1,2.3,2.2c-0.1,0-0.2,0-0.4,0.1
		c0,0.1,0.1,0.3,0.3,0.3C2,3,2.2,3.2,2,3.5c0.4,0,0.3-0.5,0.5-0.5c0,0.3-0.2,0.4-0.2,0.8c0,0.2,0.1,0.4,0,0.5
		c0.3-0.1,0.2-0.7,0.4-0.9c0,0.1,0,0.2,0,0.3C2.5,4,2.6,4.4,2.5,4.5c0.3,0,0.3-0.5,0.6-0.7C2.9,4.2,2.6,5.2,2.3,5.6
		C1.8,6.3,1.5,7.2,1,7.2C0.8,7.2,0.7,7,0.7,6.8C0.7,6,2,5.5,2,4.6c0-0.4-0.3-0.5-0.5-0.5c-0.1,0-0.3,0.1-0.4,0.2c-0.1,0-0.1,0-0.2,0
		c-0.5,0-0.3,0.9-0.8,0.8C0.4,5.2,0.6,5,0.8,4.8C0.7,5.3-0.1,5.2,0,5.8c0.1-0.5,1.4-0.4,1.4-1.2c0-0.1,0-0.2-0.1-0.2
		c0.1-0.1,0.2-0.1,0.3-0.1c0.2,0,0.3,0.1,0.3,0.3c0,0.7-1.3,1.3-1.3,2.1c0,0.1,0,0.3,0.1,0.4c-0.1,0-0.2,0-0.3-0.1
		c0,0.2,0.3,0.4,0.5,0.2c0,0,0.1,0,0.1,0C0.9,7.5,0.7,7.6,0.6,7.5c0.3,0.3,0.9-0.1,0.9-0.4C1.7,7,1.9,6.6,2.1,6.4c0,0.1,0,0.1,0,0.2
		C1.9,6.9,1.7,7.2,1.6,7.6c0,0.4-0.2,0.7-0.5,0.7c-0.1,0-0.2-0.1-0.2,0c-0.1,0.1,0,0.1,0,0.2c0,0.1-0.2,0.2-0.2,0.6
		c0,0.2,0.1,0.3,0.1,0.4C0.9,9.5,1,9.4,1,9.2C1.1,9.6,0.8,9.6,1,10c0-0.1,0.2-0.2,0.2-0.1c0.1,0.1,0,0.1,0,0.2
		c-0.1,0.1-0.1,0.4,0.2,0.3c-0.1,0-0.1-0.1,0.1-0.1c0.2,0,0.2,0,0.4,0c0.1,0,0.2-0.2,0.3-0.2c0.1,0,0.1,0.1,0.1,0.1
		c0.2,0,0.2-0.1,0.2-0.2c0-0.1-0.1-0.1,0-0.2c0.1,0,0.2,0,0.2,0.2c0.1,0,0.1-0.1,0.1-0.2c0-0.1-0.1-0.2-0.3-0.2
		c0-0.1-0.1-0.1-0.2-0.1C2,9.5,2.1,9.7,1.9,9.7c-0.2,0-0.5-0.3-0.5-0.8c0-0.3,0.3-0.4,0.5-0.4c0.2-0.1,0.6-0.3,0.8-0.7
		c0.2-0.3,0.2-0.6,0.2-1c0.3,0.2,0.3,0.4,0.3,0.6c0,0.2-0.1,0.3-0.2,0.4c-0.1,0-0.1,0-0.1,0.1c0,0.1,0,0.1,0.1,0.1
		C3.1,7.9,3.1,8,3.1,8.1c0,0.1,0.1,0.3,0.3,0.4c0-0.1,0-0.2,0-0.3c0.2,0.1,0,0.6,0.5,0.6c-0.1,0-0.1-0.2,0-0.2c0,0,0.1,0,0.2,0.2
		c0.1,0.1,0.1,0.1,0.3,0.1c0.2,0,0.1-0.1,0.2-0.1c0.1,0,0.1,0.1,0,0.2C4.8,9,4.9,8.8,4.8,8.7c0.2-0.1,0.3,0,0.3,0.1
		c0.2-0.2,0-0.4-0.1-0.4c0-0.1-0.1-0.1-0.1-0.1c-0.1,0-0.1,0-0.2,0c-0.1,0-0.1,0.1-0.2,0.1c-0.3,0-0.8-0.5-0.8-0.7
		c0-0.2,0.5-0.4,0.5-0.7c0-0.4-0.4-0.6-0.8-0.9C3.4,5.9,3.8,5.9,4.1,6c0-0.1,0.1-0.1,0.1-0.3c0.1,0.2,0,0.4,0.1,0.4
		c0.1-0.1,0.2-0.1,0.2-0.3c0,0.1-0.1,0.4,0,0.5c0-0.1,0.1-0.1,0.1-0.1c0,0,0.1,0,0.1,0.1c0,0.2-0.2,0.1-0.2,0.3
		c0,0.1,0.1,0.1,0.1,0.2c0,0.1-0.1,0.1-0.2,0.1c0,0.1,0.1,0.1,0.2,0.1c0.1,0,0.2-0.1,0.2-0.2c0.1,0.1,0,0.3-0.1,0.3
		c0.1,0,0.3,0,0.3-0.3c0.1,0,0.2,0.1,0.1,0.3C5.3,7,5.4,7,5.4,6.8C5.4,6.8,5.3,6.7,5.4,6.6"/>
	<path class="st0" d="M14,8.8c0-0.2,0.1-0.3,0.3-0.3c0.2,0,0.3,0.1,0.3,0.3c0,0.2-0.1,0.3-0.3,0.3C14.2,9,14,8.9,14,8.8 M13.9,8.8
		c0,0.2,0.2,0.4,0.4,0.4s0.4-0.2,0.4-0.4c0-0.2-0.2-0.4-0.4-0.4S13.9,8.6,13.9,8.8"/>
	<path class="st0" d="M12.7,9.5c-0.1,0-0.2-0.1-0.2-0.2c0,0,0-0.1,0.1-0.1c0,0,0.1,0,0.2,0c0.1,0,0.2,0.1,0.2,0.2c0,0,0,0,0,0
		C12.9,9.4,12.8,9.5,12.7,9.5 M12.5,9.1c0,0-0.1,0.1-0.1,0.1c0,0.1,0,0.1,0.1,0.2c0,0.1,0.1,0.1,0.2,0.1c0.1,0,0.2,0,0.2,0
		C13,9.5,13,9.4,13,9.4c0-0.1-0.1-0.3-0.2-0.3C12.7,9.1,12.6,9.1,12.5,9.1"/>
	<path class="st0" d="M10.4,4c0,0,0-0.1,0.1-0.1c0,0,0.1,0,0.1,0c0,0,0.1,0,0.1,0c0,0,0,0.1,0,0.1c0,0,0,0.1-0.1,0.1
		C10.6,4.2,10.5,4.2,10.4,4C10.4,4.1,10.4,4.1,10.4,4 M10.5,3.8c-0.1,0.1-0.2,0.2-0.1,0.3c0.1,0.1,0.2,0.1,0.3,0
		c0.1,0,0.1-0.1,0.1-0.2c0-0.1,0-0.1,0-0.1c0,0-0.1-0.1-0.1-0.1C10.6,3.7,10.5,3.8,10.5,3.8"/>
	<path class="st0" d="M12.2,9 M12.2,8.9L12.2,8.9C12.2,8.9,12.2,8.9,12.2,8.9c-0.1-0.1-0.1-0.1-0.1-0.2c0-0.1,0-0.1,0.1-0.2
		c0,0,0,0,0.1,0c0.1,0,0.1,0.1,0.1,0.2C12.4,8.8,12.4,8.8,12.2,8.9C12.3,8.9,12.3,8.9,12.2,8.9 M12.1,8.5C12,8.5,12,8.6,12,8.7v0
		c0,0.1,0,0.2,0.1,0.2c0,0,0.1,0.1,0.2,0.1c0.1,0,0.1,0,0.2-0.1c0.1-0.1,0.1-0.1,0.1-0.2c0-0.1,0-0.1-0.1-0.2c0-0.1-0.1-0.1-0.2-0.1
		C12.2,8.4,12.1,8.4,12.1,8.5"/>
	<path class="st0" d="M10.3,5.8c-0.1,0-0.2-0.1-0.1-0.2c0,0,0-0.1,0.1-0.1c0.1,0,0.1,0,0.2,0c0.1,0,0.1,0.1,0.1,0.1c0,0,0,0.1,0,0.1
		c0,0,0,0.1-0.1,0.1C10.4,5.8,10.4,5.8,10.3,5.8 M10.2,5.4c-0.1,0-0.1,0.1-0.1,0.1c-0.1,0.1,0,0.3,0.2,0.3c0.1,0,0.2,0,0.2,0
		c0.1,0,0.1-0.1,0.1-0.1c0,0,0-0.1,0-0.2c0-0.1-0.1-0.1-0.2-0.2C10.4,5.4,10.3,5.4,10.2,5.4"/>
	<path class="st0" d="M13,7.2c-0.1,0.1-0.2,0.1-0.2,0.1c-0.1,0-0.1-0.2,0-0.2c0.1-0.1,0.2-0.1,0.2-0.1C13,7,13,7.1,13,7.2 M12.5,7.9
		c-0.1,0.1-0.2,0.1-0.2,0.1c-0.1,0-0.1-0.2,0-0.2c0.1-0.1,0.2-0.1,0.2-0.1C12.6,7.7,12.6,7.8,12.5,7.9 M11,4
		c0.1-0.2,0.2-0.5,0.2-0.5l0.2,0.1c0,0-0.1,0.1-0.2,0.1c0,0,0.1,0,0.2,0l-0.1,0.2c0,0-0.1-0.1-0.1-0.1c0,0.1,0.1,0.2,0.1,0.2
		c0.1,0.1,0.2,0.1,0.2,0c0-0.1,0-0.1-0.1-0.1c0-0.1,0-0.1,0.1-0.1c0,0,0.1,0,0.1,0.1c0-0.1,0.1-0.3,0.2-0.3c0,0.1,0,0.2-0.1,0.3
		c0.1,0,0.1,0,0.1,0c0,0,0,0.1-0.1,0.2c0-0.1-0.1-0.1-0.2,0c0,0.1,0,0.1,0.1,0.2c0.1,0.1,0.2,0,0.3-0.1c0,0-0.1,0-0.2,0L11.9,4
		c0,0,0,0.1,0.1,0.1c0,0,0-0.1,0-0.2L12.2,4c-0.1,0-0.1,0.1-0.2,0.1c0.1,0,0.1,0,0.1,0l-0.1,0.2c0-0.1,0-0.1-0.1-0.2
		c-0.1,0.1,0,0.2,0.1,0.3c0.1,0.1,0.2,0.1,0.2,0c0-0.1,0-0.1-0.1-0.1c0-0.1,0-0.1,0.1-0.1c0,0,0.1,0.1,0.1,0.1
		c0-0.1,0.1-0.2,0.2-0.3c0,0.1,0,0.3-0.2,0.3c0.1,0,0.1,0,0.1,0c0,0.1,0,0.1-0.1,0.2c0-0.1-0.1-0.1-0.2-0.1c0,0,0,0.1,0.1,0.2
		c0.1,0,0.1,0.1,0.2,0c0,0-0.1,0-0.1,0l0.1-0.1c0,0.1,0,0.1,0.1,0.1c0-0.1,0-0.1,0-0.2l0.1,0.1c0,0-0.2,0.2-0.3,0.4L11,4z M12.9,6.1
		C12.9,6.1,12.9,6.1,12.9,6.1C12.9,6,13,6,13,6c0.1,0,0.1,0,0.2,0.1c0,0,0.1,0.1,0.1,0.2c0,0,0,0.1,0,0.1v0c0,0-0.1,0-0.1,0
		c-0.1,0-0.1,0-0.2-0.1C12.9,6.2,12.9,6.2,12.9,6.1 M13.5,9.2c0-0.1,0-0.1,0.1-0.1c0.1,0,0.1,0,0.2,0c0,0,0.1,0,0.1,0.1
		c0,0,0,0.1,0,0.1c0,0.1,0,0.1-0.1,0.1C13.7,9.4,13.6,9.4,13.5,9.2C13.5,9.3,13.5,9.2,13.5,9.2 M10.3,4.5c0,0.1,0,0.1-0.1,0.1
		c0,0,0,0-0.1,0c-0.1,0-0.1-0.1-0.1-0.2c0,0,0,0,0,0c0-0.1,0-0.1,0.1-0.1c0,0,0,0,0.1,0c0,0,0.1,0,0.1,0C10.3,4.4,10.3,4.5,10.3,4.5
		 M11.3,2.5c0.1-0.1,0-0.3,0.2-0.3c0.1,0,0.2,0.1,0.3,0.1C11.6,2.4,11.4,2.4,11.3,2.5 M14.2,5.1c0.1,0.3,0.4,0.5,0.6,0.4
		c-0.4,0-0.1-0.8-0.6-0.8c0,0-0.1,0-0.1,0c-0.1-0.1-0.2-0.1-0.3-0.1c-0.2,0-0.6,0.2-0.6,0.7c0,1,1.1,1.1,1.1,1.9
		c0,0.3-0.2,0.4-0.4,0.4c-0.2,0-0.3-0.2-0.5-0.5c-0.1-0.2-0.2-0.4-0.4-0.6c0.1,0,0.1,0.1,0.2,0.1c0.1,0,0.1,0,0.2-0.1
		c0,0,0.1-0.1,0.1-0.2v0c0-0.1,0-0.2-0.1-0.2c-0.1-0.1-0.1-0.1-0.2-0.1c-0.1,0-0.1,0-0.2,0.1c0,0-0.1,0.1-0.1,0.2v0c0,0,0,0.1,0,0.1
		c-0.2-0.3-0.5-0.6-0.5-0.8c0-0.2,0.1-0.3,0.2-0.4c0,0,0,0,0,0l0,0c0,0,0.1-0.2,0.3-0.4l0,0h0l0,0l-0.1-0.1c0-0.1,0.1-0.2,0.1-0.2
		c0,0.2,0.1,0.3,0.2,0.2c-0.1-0.2,0.1-0.4,0-0.8c0.1,0.2,0.2,0.2,0.3,0.2c-0.3-0.2,0.1-0.5-0.3-1c0.1,0,0.2,0,0.2,0
		c-0.3,0-0.2-0.4-0.7-0.6c0.1,0,0.2-0.1,0.2-0.2c-0.1,0.1-0.3-0.2-0.7-0.2c0-0.2-0.2-0.3-0.4-0.4c0,0.1,0,0.2,0,0.3l-1.5-1.4
		c0,0-0.1-0.1-0.1,0s0,0,0,0.1L11.6,2c-0.1,0-0.2,0.1-0.3,0.1c-0.1,0-0.1,0.1-0.1,0.2c-0.2,0.1-0.4,0.3-0.5,0.4
		c-0.1,0.1-0.1,0.1-0.1,0.2c0,0.1-0.1,0.2,0.1,0.1c0.1-0.1,0.4-0.2,0.4-0.1C11.2,2.9,11,3,10.9,3c-0.1,0-0.2,0.1-0.2,0.1
		c0,0,0.1,0,0.1,0c0,0,0,0.1,0.1,0.1S11,3.2,11,3.2c0,0,0,0.2,0,0.2c0.1,0,0.2-0.2,0.2-0.3c0-0.1,0-0.1,0.1-0.1c0,0,0,0.1,0,0.2
		c0.1,0,0.2-0.1,0.1-0.3c0,0,0.1-0.1,0.1-0.1c0,0,0.1,0.1,0.3,0.1c0.2,0,0.4-0.2,0.4-0.3c0-0.1,0-0.2,0-0.2c0.1,0.1,0.1,0.2,0.1,0.3
		c0,0.4-0.6,0.5-0.9,0.8c0,0,0,0,0,0l-0.3-0.1l0,0.1c0,0,0,0,0,0.1C11.1,3.7,11,3.9,11,4l0,0l0,0c-0.2,0.2-0.3,0.5-0.3,0.8
		c-0.1-0.1-0.1-0.1-0.2-0.2c0,0,0-0.1,0-0.1c0-0.1,0-0.2-0.1-0.2c0,0-0.1-0.1-0.1-0.1c-0.1,0-0.1,0-0.1,0.1c0,0,0,0,0,0c0,0,0,0,0,0
		C9.9,4.2,9.8,4.2,9.7,4.1C9.7,4,9.7,4,9.6,4c0,0-0.1,0-0.1,0c0,0-0.1,0-0.1,0.1c0,0-0.1,0.1-0.2,0.1c0,0,0.1,0.1,0.1,0.1
		c0,0,0,0,0.1,0.1c0,0,0,0,0.1,0c0,0,0.1,0,0.1,0c0,0,0.1,0,0.1,0.1c0,0,0.3,0.4,0.5,0.6c0,0,0,0-0.1,0c-0.1,0-0.3,0-0.4,0
		C9.6,5,9.6,5,9.5,5.1c0,0-0.1,0.1-0.1,0.1c0,0,0,0.1,0,0.2c0.1,0.1,0.3,0.5,0.4,0.7c0.1,0.2,0.2,0.2,0.3,0.3
		c0.1,0.1,0.4,0.2,0.4,0.2l0-0.1c0,0-0.2-0.1-0.2-0.1c0,0-0.1,0,0,0s0.2,0.1,0.3,0.1c0-0.1-0.2-0.3-0.2-0.4c-0.1,0-0.2,0-0.2,0
		c0,0,0,0.1-0.1,0.1c0,0-0.1,0-0.1-0.1c0,0,0.1-0.1,0.1-0.1c0-0.1-0.1-0.1-0.2-0.1C9.9,5.7,9.8,5.5,9.7,5.5c0-0.1,0-0.1,0-0.1
		c0.1-0.1,0.2,0,0.5,0c0.1,0,0.2,0,0.4,0c0,0.3,0.2,0.7,0.7,0.8c0.2,0.1,0.5,0.2,0.6,0.5c-1,0-1.1,0.4-1.1,0.7
		c0,0.4,0.3,0.4,0.3,0.7c0,0.3-0.8,0.4-1.1,0.4c-0.2,0-0.3,0.1-0.4,0.2C9.5,8.7,9.4,8.8,9.2,9c0,0,0.1,0,0.2,0l0.1-0.2
		c0-0.1,0.1-0.1,0.1-0.1c0,0,0,0.1,0,0.1L9.5,9c0.5,0,0.5-0.1,0.5-0.2c0-0.1-0.1-0.1-0.1-0.2c0.1,0,0.1,0,0.2,0
		c0.1,0.1,0.1,0.1,0.2,0.1c0,0,1-0.4,1.2-0.5c0.1-0.1,0.1-0.1,0-0.2c-0.1-0.1-0.1-0.2-0.1-0.3c0-0.3,0.2-0.4,0.5-0.4
		c0,0.1,0,0.1,0,0.2c0,0.5,0.7,1,0.9,1c0.1,0,0.2-0.1,0.2,0.2c0,0.2,0,0.4,0,0.6c0,0.3-0.1,0.3-0.3,0.4c-0.2,0.1-0.3,0.4-0.4,0.5
		c0.1,0,0.1,0.1,0.2-0.1c0-0.1,0.1-0.2,0.2-0.3c-0.1,0.1-0.1,0.4-0.1,0.4c0.2,0,0.5-0.1,0.5-0.3c0-0.1-0.1-0.1-0.1-0.2
		c0,0,0-0.1,0.1-0.1c0.1,0,0.1,0.1,0.1,0.1c0.1,0,0.1-0.1,0.1-0.3c0-0.1,0-0.2,0-0.2c0,0,0,0,0,0c0,0.1,0.1,0.1,0.2,0.1
		c0.1,0,0.1,0,0.2-0.1c0.1,0,0.1-0.1,0.1-0.2c0,0,0,0,0,0c0,0,0-0.1,0-0.1c0,0-0.1-0.1-0.1-0.1c-0.1,0-0.2,0-0.2,0.1
		c-0.1,0-0.1,0.1-0.1,0.2c0-0.3,0-0.5,0-0.6c0-0.1,0-0.2,0-0.2c-0.1,0-0.1,0.1-0.2,0.1c-0.1,0-0.3-0.2-0.3-0.4
		c0-0.2,0.2-0.5,0.2-0.8c0-0.1,0.1-0.1,0.1-0.1c0,0.1,0.1,0.2,0.2,0.3c-0.1,0.4,0.3,0.7,0.7,0.5c-0.2,0-0.3-0.1-0.3-0.3
		c0,0,0.1,0,0.1,0c0,0,0,0,0,0c0.1,0.1,0.5,0.1,0.6-0.2c-0.1,0.1-0.2,0.1-0.3,0.1c0.1-0.1,0.2-0.3,0.2-0.5c0-0.9-1.1-1-1.1-1.9
		c0-0.3,0.3-0.5,0.5-0.5c0.1,0,0.1,0,0.2,0.1c-0.1,0.1-0.1,0.2-0.1,0.3c0,0.7,1.1,0.6,1.1,1C15.1,5.6,14.2,5.7,14.2,5.1"/>
</g>
</svg>
