<?xml version="1.0" encoding="UTF-8" standalone="no"?>
<svg
   width="200"
   height="29"
   viewBox="0 0 1077 157"
   fill="none"
   version="1.1"
   id="svg1"
   xmlns="http://www.w3.org/2000/svg"
   xmlns:svg="http://www.w3.org/2000/svg">
  <defs
     id="defs1" />
  <path
     fill-rule="evenodd"
     clip-rule="evenodd"
     d="m 0,78 v 78 H 4.5 9 V 78 0 H 4.5 0 Z M 135.767,2.25 c 0.517,2.004 0.397,2.1 -1.094,0.878 C 133.171,1.895 133,2.086 133,5 c 0,2.771 0.219,3.063 1.5,2 2.047,-1.699 2.07,0.864 0.032,3.559 -1.645,2.175 -2.003,6.032 -0.637,6.876 0.493,0.305 1.153,-0.119 1.469,-0.941 0.792,-2.063 2.87,-1.869 4.859,0.453 1.319,1.541 1.47,2.636 0.722,5.244 C 139.706,26.513 139.736,32 141,32 c 0.55,0 1.011,-1.462 1.024,-3.25 0.013,-1.788 0.443,-5.05 0.956,-7.25 0.587,-2.522 0.578,-4.123 -0.024,-4.333 C 142.43,16.983 142,15.772 142,14.476 142,13.179 141.543,11.835 140.984,11.49 140.425,11.144 140.207,10.474 140.5,10 140.793,9.526 140.575,8.856 140.016,8.51 138.048,7.294 138.953,5.905 141,7 c 1.798,0.962 2,0.76 2,-2 0,-2.76 -0.202,-2.962 -2,-2 -2.203,1.179 -2.688,0.088 -0.8,-1.8 0.933,-0.933 0.51,-1.2 -1.906,-1.2 -2.727,0 -3.036,0.275 -2.527,2.25 z M 128,17 c 0,0.55 0.45,1 1,1 0.55,0 1,-0.45 1,-1 0,-0.55 -0.45,-1 -1,-1 -0.55,0 -1,0.45 -1,1 z m 8.25,1.5 c 0,1.375 0.563,2.5 1.25,2.5 0.688,0 1.25,-1.125 1.25,-2.5 0,-1.375 -0.562,-2.5 -1.25,-2.5 -0.687,0 -1.25,1.125 -1.25,2.5 z M 145,17 c 0,0.55 0.675,1 1.5,1 0.825,0 1.5,-0.45 1.5,-1 0,-0.55 -0.675,-1 -1.5,-1 -0.825,0 -1.5,0.45 -1.5,1 z m -21,0.969 c 0,0.532 -0.675,0.709 -1.5,0.393 -0.942,-0.362 -1.5,0.01 -1.5,1 0,0.989 -0.558,1.361 -1.5,1 -0.95,-0.365 -1.5,0.013 -1.5,1.031 0,2.092 0.941,2 4,-0.393 1.375,-1.076 3.063,-1.966 3.75,-1.978 C 127.545,18.99 127.299,17 125.5,17 c -0.825,0 -1.5,0.436 -1.5,0.969 z m 7.507,0.781 c 0.397,0.962 1.008,4.213 1.357,7.224 0.576,4.954 0.867,5.474 3.062,5.472 1.334,-0.001 2.632,-0.62 2.884,-1.375 0.326,-0.979 -0.156,-1.214 -1.676,-0.816 C 135.278,29.74 135,29.389 135,26.556 135,22.519 133.149,17 131.795,17 c -0.569,0 -0.695,0.763 -0.288,1.75 z M 149,17.64 c 0,0.776 3.203,3.284 4.25,3.328 0.412,0.018 0.75,-0.691 0.75,-1.575 0,-1.018 -0.55,-1.396 -1.5,-1.031 -0.825,0.316 -1.5,0.139 -1.5,-0.393 0,-0.533 -0.45,-0.969 -1,-0.969 -0.55,0 -1,0.288 -1,0.64 z m -22,3.087 c -3.766,1.43 -10.302,6.772 -12.679,10.364 -3.891,5.88 -2.317,5.621 2.956,-0.487 2.955,-3.423 6.282,-6.047 9.176,-7.237 5.632,-2.316 6.139,-4.762 0.547,-2.64 z m 17.004,-0.085 c 0.002,0.472 2.033,1.693 4.513,2.712 2.821,1.161 6.37,3.943 9.481,7.433 2.734,3.067 5.22,5.328 5.525,5.023 0.955,-0.954 -5.901,-9.132 -10.054,-11.992 -4.155,-2.862 -9.472,-4.646 -9.465,-3.176 z M 155,21.331 c 0,0.732 1.075,1.907 2.39,2.61 1.314,0.704 2.965,2.355 3.669,3.669 1.268,2.37 3.941,3.312 3.941,1.39 0,-0.55 -0.675,-1 -1.5,-1 -0.825,0 -1.5,-0.445 -1.5,-0.989 0,-1.536 -3.259,-4.969 -4.178,-4.401 C 157.37,22.89 157,22.416 157,21.559 157,20.702 156.55,20 156,20 c -0.55,0 -1,0.599 -1,1.331 z M 179,22 c 0,0.55 0.477,1 1.059,1 0.582,0 0.781,-0.45 0.441,-1 -0.34,-0.55 -0.816,-1 -1.059,-1 -0.243,0 -0.441,0.45 -0.441,1 z m -64.409,2.164 c -1.271,1.485 -1.461,2.366 -0.678,3.149 0.783,0.783 1.087,0.611 1.087,-0.613 0,-0.935 0.675,-1.7 1.5,-1.7 1.602,0 2.041,-1.547 0.678,-2.39 -0.452,-0.279 -1.616,0.42 -2.587,1.554 z M 136.333,25 c 0,1.754 0.526,3 1.267,3 0.759,0 1.232,-1.201 1.181,-3 -0.047,-1.65 -0.617,-3 -1.267,-3 -0.649,0 -1.181,1.35 -1.181,3 z M 181,24.809 c 0,1.685 2.866,4.656 3.668,3.803 0.458,-0.487 0.27,-1.087 -0.418,-1.332 C 183.563,27.034 183,26.196 183,25.417 183,24.638 182.55,24 182,24 c -0.55,0 -1,0.364 -1,0.809 z M 111,29 c 0,0.55 0.45,1 1,1 0.55,0 1,-0.45 1,-1 0,-0.55 -0.45,-1 -1,-1 -0.55,0 -1,0.45 -1,1 z m 74.345,2.829 c 0.91,1.006 1.655,2.318 1.655,2.916 0,0.599 0.563,1.315 1.25,1.593 0.688,0.277 0.168,0.54 -1.155,0.583 -2.271,0.075 -2.312,0.182 -0.741,1.918 1.586,1.753 1.372,1.953 -4.595,4.291 -3.696,1.449 -6.259,3.051 -6.259,3.912 0,0.802 -0.9,1.732 -2,2.068 -1.783,0.543 -1.674,0.742 1,1.827 2.982,1.211 2.987,1.229 0.942,2.895 -1.602,1.306 -2.057,2.838 -2.057,6.923 0,3.768 0.384,5.245 1.366,5.245 0.752,0 1.07,0.481 0.707,1.068 -0.363,0.588 -1.29,0.827 -2.059,0.532 -0.784,-0.301 -1.399,0.072 -1.399,0.85 0,0.762 -0.29,2.143 -0.645,3.067 -0.576,1.502 -0.39,1.537 1.75,0.332 1.317,-0.742 2.726,-1.799 3.13,-2.349 0.458,-0.623 0.74,-0.539 0.75,0.224 0.017,1.382 -5.048,4.276 -7.483,4.276 -0.879,0 -2.701,1.191 -4.05,2.646 -1.348,1.455 -2.452,2.22 -2.452,1.7 0,-0.52 0.399,-1.374 0.888,-1.896 0.488,-0.523 1.193,-1.963 1.567,-3.2 0.503,-1.665 0.273,-2.25 -0.888,-2.25 -0.9,0 -1.567,-0.851 -1.567,-2 0,-1.538 -0.667,-2 -2.883,-2 -2.134,0 -3.034,-0.575 -3.462,-2.211 l -0.578,-2.21 -2.353,2.21 C 152.43,66.005 150.163,67 148.686,67 c -3.044,0 -3.028,0.03 -1.724,-3.399 0.62,-1.631 0.615,-2.744 -0.012,-3.132 -0.535,-0.331 -1.257,0.816 -1.604,2.549 -0.384,1.922 -1.453,3.458 -2.738,3.936 -3.999,1.488 -11.427,-0.82 -10.011,-3.111 0.316,-0.512 0.031,-1.586 -0.633,-2.387 -2.827,-3.405 -8.461,-0.082 -6.145,3.625 1.091,1.748 0.9,1.919 -2.144,1.919 -3.967,0 -5.066,-0.824 -3.544,-2.658 1.684,-2.028 -0.772,-1.723 -3.977,0.495 -1.46,1.011 -3.441,2.122 -4.404,2.469 -0.963,0.347 -1.75,1.268 -1.75,2.046 0,0.778 -0.9,1.65 -2,1.938 -1.472,0.385 -2,1.364 -2,3.71 0,2.346 0.528,3.325 2,3.71 1.1,0.288 2.078,1.033 2.173,1.657 0.095,0.623 0.432,-1.792 0.75,-5.367 L 111.5,68.5 123.75,68.219 136,67.938 V 81.469 95 h -5.223 c -5.065,0 -5.153,-0.048 -2.945,-1.595 1.346,-0.942 3.229,-1.356 4.605,-1.01 2.084,0.523 2.304,0.268 2.092,-2.426 -0.319,-4.052 -0.715,-4.288 -5.712,-3.401 -3.956,0.702 -4.108,0.834 -1.817,1.58 2.291,0.747 2.25,0.782 -0.489,0.426 -1.645,-0.213 -3.732,0.009 -4.64,0.495 -1.236,0.661 -1.78,0.387 -2.167,-1.093 -0.668,-2.555 -2.742,-2.547 -3.411,0.013 -0.549,2.096 -2.293,1.8 -2.293,-0.39 0,-1.413 11.615,-5.317 12.673,-4.259 0.363,0.363 -0.405,0.66 -1.706,0.66 -1.777,0 -2.082,0.285 -1.223,1.144 0.86,0.86 1.888,0.837 4.127,-0.09 1.64,-0.68 3.915,-0.939 5.055,-0.577 2.049,0.65 2.944,-0.821 1.168,-1.919 -0.498,-0.308 -0.671,-1.46 -0.383,-2.559 C 134.151,78.316 133.74,78 131.117,78 129.402,78 128,78.499 128,79.108 c 0,0.693 0.969,0.866 2.584,0.46 1.675,-0.42 2.358,-0.283 1.941,0.392 -0.354,0.572 -2.529,1.008 -4.834,0.97 -3.094,-0.052 -3.668,-0.275 -2.193,-0.85 1.706,-0.666 1.524,-0.85 -1.25,-1.257 -3.179,-0.466 -4.474,0.516 -1.998,1.515 0.789,0.318 0.645,0.533 -0.393,0.583 -0.904,0.043 -1.902,-0.596 -2.219,-1.421 -0.798,-2.081 -3.635,-1.887 -3.653,0.25 -0.013,1.468 -0.166,1.513 -0.946,0.279 -1.181,-1.868 -2.293,-0.854 -1.456,1.328 0.347,0.904 1.37,1.65 2.274,1.658 1.418,0.014 1.438,0.145 0.151,0.959 -0.905,0.572 -1.852,0.582 -2.409,0.025 -0.504,-0.504 -2.941,-0.64 -5.414,-0.301 -3.359,0.461 -4.31,0.313 -3.757,-0.581 0.407,-0.659 1.602,-0.925 2.656,-0.59 1.373,0.435 1.916,0.128 1.916,-1.085 0,-1.361 -0.61,-1.57 -3.122,-1.068 -2.695,0.539 -2.952,0.42 -1.877,-0.875 0.797,-0.96 0.858,-1.499 0.171,-1.499 -0.59,0 -1.479,0.725 -1.975,1.612 -0.769,1.375 -1.217,1.168 -3.049,-1.405 C 97.966,76.549 97,74.846 97,74.424 c 0,-0.421 -0.787,-1.694 -1.75,-2.828 -1.683,-1.983 -1.679,-2.007 0.104,-0.62 1.02,0.793 2.246,2.473 2.725,3.733 1.162,3.054 2.137,2.888 4.273,-0.728 2.527,-4.277 11.295,-10.599 18.237,-13.149 4.676,-1.718 8.209,-2.184 16.911,-2.231 12.277,-0.067 19.013,1.847 25.972,7.377 3.429,2.725 3.753,2.798 5.358,1.211 1.609,-1.59 1.532,-1.722 -1.311,-2.254 -6.82,-1.276 -9.578,-4.981 -5.949,-7.993 0.863,-0.716 1.347,-2.151 1.076,-3.188 -0.596,-2.277 2.897,-12.854 4.59,-13.9 1.549,-0.957 0.942,-1.52 -2.596,-2.408 -2.708,-0.68 -2.794,-0.602 -1.667,1.504 1.484,2.773 0.328,4.182 -1.443,1.76 -1.202,-1.644 -1.397,-1.531 -2.419,1.4 -1.445,4.148 -1.448,4.141 0.889,2.89 2.203,-1.179 2.688,-0.088 0.8,1.8 -1.702,1.702 -6.748,1.499 -7.438,-0.3 -0.317,-0.825 -0.255,-2.288 0.138,-3.25 0.67,-1.64 0.758,-1.634 1.404,0.097 0.624,1.67 0.816,1.695 2.005,0.263 C 158.483,41.713 157.673,39 155.531,39 154.448,39 154,37.976 154,35.5 c 0,-4.242 -1.728,-4.58 -3.112,-0.609 -0.736,2.111 -1.505,2.761 -2.851,2.408 -2.204,-0.576 -3.853,3.285 -2.136,5.002 C 146.7,43.1 147,43.072 147,42.2 c 0,-0.66 0.45,-1.2 1,-1.2 1.393,0 1.253,3.347 -0.2,4.8 -1.875,1.875 -4.242,1.423 -6.796,-1.296 -2.635,-2.804 -1.952,-4.577 1.041,-2.708 1.801,1.125 1.955,0.943 1.955,-2.296 0,-3.239 -0.154,-3.421 -1.955,-2.296 -2.715,1.696 -3.749,0.231 -1.551,-2.198 1.793,-1.981 1.757,-2.006 -2.91,-2.006 -4.297,0 -4.584,0.143 -3.155,1.571 2.836,2.837 1.959,4.242 -1.495,2.394 -1.743,-0.933 -1.934,-0.685 -1.934,2.5 0,1.944 0.45,3.535 1,3.535 0.55,0 1,-0.45 1,-1 0,-0.55 0.675,-1 1.5,-1 2.078,0 1.874,1.626 -0.5,4 -3.321,3.321 -8,2.034 -8,-2.2 0,-2.051 1.597,-2.433 2.3,-0.55 0.317,0.848 0.7,0.688 1.191,-0.5 1.1,-2.662 -0.208,-5.057 -2.443,-4.473 -1.446,0.378 -2.181,-0.218 -2.936,-2.386 C 122.728,30.92 121,31.258 121,35.5 c 0,2.476 -0.448,3.5 -1.531,3.5 -2.1,0 -2.964,2.699 -1.449,4.524 1.096,1.321 1.408,1.289 2.634,-0.263 1.263,-1.599 1.366,-1.484 1.119,1.239 -0.232,2.548 -0.738,3.045 -3.358,3.301 -1.994,0.195 -3.586,-0.309 -4.5,-1.423 -1.276,-1.556 -1.195,-1.668 0.83,-1.146 2.007,0.517 2.178,0.296 1.612,-2.077 -0.968,-4.055 -1.424,-4.428 -3.019,-2.465 -1.362,1.678 -1.437,1.604 -1.028,-1.017 0.41,-2.62 0.249,-2.779 -2.182,-2.169 -3.474,0.872 -3.636,1.131 -1.832,2.935 2.124,2.124 4.98,11.117 4.255,13.4 -0.347,1.095 0.039,2.406 0.926,3.142 2.607,2.163 1.651,4.397 -3.323,7.769 -5.701,3.865 -9.154,4.272 -9.154,1.079 0,-1.194 -0.745,-2.994 -1.655,-4 C 98.435,60.823 98.183,60 98.786,60 c 0.603,0 1.374,0.45 1.714,1 0.34,0.55 1.072,1 1.626,1 1.591,0 -0.099,-4.297 -2.482,-6.313 L 97.5,53.875 100,54.57 c 2.422,0.674 2.445,0.635 0.75,-1.266 C 99.787,52.225 99,50.815 99,50.171 99,48.413 97.238,48.762 96.08,50.75 95.17,52.313 95.058,52.259 95.03,50.25 95.014,49.013 95.45,48 96,48 c 0.55,0 1,-0.9 1,-2 0,-2.309 -0.032,-2.319 -3.435,-1.025 C 91.24,45.859 91,45.719 91,43.475 91,41.027 89.03,39.839 88.968,42.25 88.95,42.953 88.241,42.625 87.346,41.5 85.825,39.586 85.782,39.64 86.353,42.75 86.806,45.217 86.595,46 85.475,46 84.664,46 84.113,45.494 84.25,44.875 84.642,43.109 82.316,42.735 81.655,44.458 81.329,45.306 81.525,46 82.09,46 c 0.566,0 0.729,0.483 0.365,1.073 -0.415,0.672 -1.208,0.297 -2.116,-1 -1.921,-2.742 -3.762,-2.732 -2.293,0.013 0.614,1.147 0.855,2.347 0.535,2.666 C 78.261,49.072 78,48.808 78,48.167 78,47.525 77.255,47 76.345,47 c -1.477,0 -1.456,0.22 0.194,2.043 1.806,1.996 1.798,2.056 -0.345,2.617 -2.911,0.761 -2.794,3.161 0.209,4.303 1.321,0.503 2.726,1.436 3.121,2.075 0.536,0.868 0.16,0.863 -1.489,-0.019 -2.534,-1.357 -3.82,-0.67 -2.263,1.207 0.582,0.701 1.141,1.724 1.243,2.274 0.102,0.55 0.544,0.903 0.982,0.784 0.439,-0.119 0.579,0.623 0.311,1.648 -0.268,1.025 0.061,2.888 0.731,4.14 l 1.218,2.277 1.216,-2.924 1.215,-2.925 0.456,3.755 c 0.384,3.162 -0.002,4.188 -2.445,6.5 -2.367,2.239 -12.785,14.397 -19.277,22.495 -1.744,2.176 -6.752,2.277 -8.851,0.179 -2.014,-2.015 -1.977,-2.706 0.3,-5.518 1.795,-2.217 1.974,-2.243 4.425,-0.637 3.049,1.998 4.358,0.276 1.919,-2.524 C 57.806,87.133 57.92,87 60.723,87 c 3.645,0 6.425,-2.563 3.58,-3.3 -1.519,-0.394 -1.473,-0.486 0.292,-0.584 1.152,-0.064 2.946,-1.056 3.986,-2.206 l 1.891,-2.089 -3.827,0.718 -3.828,0.718 3.592,-4.705 C 68.384,72.964 70,69.745 70,68.399 70,65.044 63.414,55.479 62.587,57.634 61.834,59.596 57.748,58.805 53.75,55.923 51.071,53.991 51,53.989 51,55.848 c 0,1.049 0.696,2.485 1.547,3.191 1.137,0.943 1.234,1.479 0.365,2.015 -0.811,0.502 -0.512,1.09 0.953,1.874 1.272,0.68 2.135,2.115 2.135,3.548 0,1.323 0.45,2.684 1,3.024 0.55,0.34 1,-0.014 1,-0.786 0,-0.772 0.863,-2.185 1.917,-3.139 1.48,-1.34 2.364,-1.495 3.882,-0.682 4.489,2.402 3.077,6.57 -5.018,14.804 -4.066,4.137 -5.464,5.008 -6.847,4.268 -1.42,-0.76 -1.645,-0.578 -1.233,1 0.278,1.061 -0.274,3.969 -1.226,6.462 -1.641,4.297 -1.641,4.67 -0.001,7.173 0.951,1.452 2.58,2.863 3.618,3.134 1.474,0.386 1.75,1.073 1.257,3.13 l -0.631,2.636 2.391,-2.065 c 1.315,-1.136 3.741,-2.895 5.391,-3.908 1.65,-1.013 3.421,-2.556 3.936,-3.428 0.727,-1.231 1.214,-0.498 2.175,3.27 1.464,5.738 1.006,7.438 -2.221,8.248 -1.315,0.33 -2.39,0.929 -2.39,1.331 0,0.402 -1.125,1.244 -2.5,1.87 -3.064,1.396 -3.485,4.673 -0.5,3.892 1.1,-0.287 2,-0.167 2,0.267 0,0.434 -0.9,1.025 -2,1.313 -1.222,0.319 -2,1.364 -2,2.684 0,1.706 0.421,2.027 2,1.526 2.352,-0.746 2.645,0.72 0.5,2.5 -1.756,1.457 -1.817,1.981 -0.466,4 0.869,1.298 1.203,1.239 2.485,-0.441 1.171,-1.534 1.481,-1.616 1.481,-0.39 0,2.738 6.371,8.581 9.357,8.581 2.603,0 2.65,-0.085 1.03,-1.875 -1.928,-2.13 -1.584,-2.281 2.048,-0.9 2.371,0.902 2.565,0.766 2.565,-1.8 0,-3.536 -1.654,-5.175 -5.225,-5.175 -2.159,0 -3.07,-0.646 -3.866,-2.74 -1.42,-3.735 -0.291,-8.879 2.358,-10.734 2.035,-1.426 2.248,-1.376 3.07,0.721 0.834,2.128 0.984,2.031 2.699,-1.747 0.999,-2.2 1.849,-4.6 1.89,-5.333 0.041,-0.734 0.637,-1.149 1.324,-0.923 1.847,0.606 2.085,5.233 0.343,6.679 -1.037,0.861 -1.324,2.239 -0.918,4.414 0.796,4.271 2.183,5.635 3.449,3.392 1.183,-2.097 2.876,-1.377 2.876,1.223 0,1.009 0.712,2.107 1.582,2.441 2.235,0.858 2.418,0.79 2.418,-0.893 0,-2.143 1.741,-1.853 3,0.5 0.599,1.12 2.094,2 3.397,2 1.91,0 2.244,-0.425 1.871,-2.379 -0.401,-2.099 -0.15,-2.321 2.139,-1.884 2.808,0.537 3.325,-0.516 1.343,-2.739 -1.041,-1.167 -0.992,-1.209 0.291,-0.251 1.232,0.92 1.804,0.73 2.85,-0.945 1.037,-1.659 1.485,-1.812 2.152,-0.732 0.952,1.54 -0.767,4.219 -2.156,3.36 -2.21,-1.366 -0.485,1.294 3.863,5.955 l 4.75,5.092 -4,0.722 c -27.152,4.901 -34.277,6.011 -39.306,6.127 l -5.892,0.135 2.937,4.773 c 1.903,3.093 3.873,5.007 5.599,5.44 1.613,0.405 9.951,-0.781 21.162,-3.01 10.175,-2.023 19.437,-3.675 20.583,-3.671 2.856,0.01 3.637,1.035 2.158,2.829 -1.082,1.312 -0.952,1.352 1.009,0.307 2.904,-1.548 2.856,-4.256 -0.139,-7.814 l -2.388,-2.839 3.138,0.148 c 1.727,0.081 4.827,1.143 6.889,2.361 2.963,1.748 3.75,2.821 3.75,5.114 0,1.595 0.45,2.901 1,2.901 0.55,0 1,-1.173 1,-2.607 0,-1.974 0.387,-2.459 1.593,-1.996 0.876,0.336 2.631,0.872 3.899,1.19 2.849,0.715 4.185,5.413 1.54,5.413 -1.11,0 -1.664,0.773 -1.611,2.25 0.048,1.369 -0.509,2.25 -1.421,2.25 -0.912,0 -1.469,-0.881 -1.421,-2.25 0.044,-1.238 -0.406,-2.256 -1,-2.264 -0.593,-0.007 -2.09,-0.284 -3.325,-0.615 -2.236,-0.599 -2.24,-0.581 -0.759,3.763 1.319,3.87 1.318,4.146 -0.004,2.425 -0.82,-1.068 -1.491,-2.747 -1.491,-3.731 0,-2.535 -4.692,-3.519 -7.931,-1.663 -1.413,0.809 -2.506,2.229 -2.43,3.153 0.181,2.194 -1.264,2.156 -2.559,-0.068 -0.561,-0.963 -1.026,-1.3 -1.034,-0.75 -0.052,3.411 5.278,5.722 12.432,5.392 2.762,-0.128 6.034,0.31 7.272,0.973 1.663,0.891 2.786,0.919 4.303,0.106 1.13,-0.604 5.15,-1.198 8.934,-1.32 5.094,-0.164 7.418,-0.707 8.947,-2.091 1.136,-1.029 2.066,-2.32 2.066,-2.87 0,-0.55 -0.855,-0.226 -1.9,0.719 -1.797,1.627 -1.891,1.625 -1.75,-0.026 0.362,-4.225 -9.585,-5.747 -10.661,-1.632 -0.344,1.315 -0.486,1.191 -0.573,-0.501 C 143.052,147.012 142.55,146 142,146 c -1.577,0 -1.165,-2.999 0.5,-3.638 0.825,-0.317 1.5,-1.372 1.5,-2.344 0,-1.136 1,-1.968 2.798,-2.328 1.539,-0.307 3.902,-1.623 5.25,-2.923 1.349,-1.301 4.834,-4.083 7.746,-6.183 2.911,-2.1 6.788,-5.776 8.615,-8.169 1.827,-2.393 3.586,-4.086 3.909,-3.764 0.323,0.323 -0.127,1.301 -1,2.173 -2.792,2.793 0.587,2.641 3.512,-0.158 1.656,-1.584 4.948,-3.063 8.67,-3.894 5.385,-1.202 5.966,-1.575 5.673,-3.642 -0.384,-2.699 2.42,-6.223 4.36,-5.479 0.74,0.284 1.931,-0.421 2.647,-1.567 0.716,-1.146 1.916,-2.084 2.668,-2.084 0.751,0 1.13,-0.616 0.84,-1.369 -0.289,-0.754 0.304,-2.733 1.317,-4.399 1.014,-1.667 1.989,-4.278 2.169,-5.804 0.311,-2.649 2.826,-4.831 2.826,-2.452 0,0.628 -0.45,0.864 -1,0.524 -0.55,-0.34 -1,0.121 -1,1.024 0,0.904 0.563,1.457 1.25,1.231 1.645,-0.542 2.215,-4.69 0.835,-6.07 C 205.488,84.088 205,82.816 205,81.857 c 0,-2.292 -4.07,-5.187 -5.409,-3.848 -1.772,1.772 -3.322,1.054 -4.651,-2.154 -1.215,-2.934 -1.127,-3.298 1.311,-5.395 1.438,-1.237 3.207,-2.455 3.932,-2.708 1.004,-0.351 0.877,-0.955 -0.536,-2.548 -1.019,-1.149 -1.635,-2.677 -1.369,-3.396 0.292,-0.79 0.917,-0.219 1.578,1.442 1.657,4.164 3.42,3.439 2.975,-1.224 -0.246,-2.578 -0.037,-3.632 0.595,-3 2.788,2.788 3.646,-2.05 1.027,-5.79 -1.397,-1.994 -1.397,-2.152 0,-1.616 2.264,0.869 1.939,-1.955 -0.477,-4.141 -1.33,-1.204 -1.647,-2.065 -0.924,-2.511 0.705,-0.436 0.039,-1.84 -1.859,-3.918 -2.025,-2.216 -3.19,-2.863 -3.693,-2.049 -0.497,0.803 -1.345,0.265 -2.611,-1.656 -1.454,-2.206 -1.877,-2.433 -1.882,-1.012 -0.007,1.804 -2.482,1.885 -2.533,0.084 C 190.421,34.535 186.714,30 185.23,30 c -1.345,0 -1.33,0.232 0.115,1.829 z M 109,32 c 0,0.55 0.45,1 1,1 0.55,0 1,-0.45 1,-1 0,-0.55 -0.45,-1 -1,-1 -0.55,0 -1,0.45 -1,1 z m 55,0 c 0,0.55 0.45,1 1,1 0.55,0 1,-0.45 1,-1 0,-0.55 -0.45,-1 -1,-1 -0.55,0 -1,0.45 -1,1 z m -86,2.976 c 0,1.052 1.09,3.175 2.422,4.718 L 82.845,42.5 81.724,38.281 C 80.55,33.859 78,31.596 78,34.976 Z m 29.192,0.099 c 0.197,0.591 0.785,1.075 1.308,1.075 0.523,0 1.111,-0.484 1.308,-1.075 C 110.005,34.484 109.417,34 108.5,34 c -0.917,0 -1.505,0.484 -1.308,1.075 z M 165.5,35 c -0.34,0.55 0.084,1 0.941,1 0.857,0 1.559,-0.45 1.559,-1 0,-0.55 -0.423,-1 -0.941,-1 -0.518,0 -1.219,0.45 -1.559,1 z M 83,37.891 c 0,0.489 1.553,1.071 3.451,1.293 2.736,0.32 3.229,0.135 2.378,-0.891 C 87.62,36.837 83,36.518 83,37.891 Z m -6.924,2.518 C 74.55,42.247 73.867,46 75.057,46 75.576,46 76,45.473 76,44.829 c 0,-0.644 0.704,-1.95 1.565,-2.901 0.896,-0.989 1.158,-1.981 0.613,-2.318 -0.523,-0.323 -1.469,0.036 -2.102,0.799 z M 268.713,39.621 C 268.321,40.013 268,57.583 268,78.667 V 117 h 26 26 V 112.5 108 H 299.513 279.026 L 278.763,73.75 278.5,39.5 273.963,39.204 c -2.496,-0.163 -4.858,0.025 -5.25,0.417 z M 498.714,39.62 C 498.321,40.012 498,57.583 498,78.667 V 117 h 5.012 5.011 L 507.762,78.25 507.5,39.5 503.464,39.203 c -2.22,-0.163 -4.358,0.024 -4.75,0.417 z m 73.942,0.128 c -0.286,0.463 -5.334,13.196 -11.218,28.297 -15.814,40.582 -18.406,47.372 -18.423,48.257 -0.008,0.442 2.291,0.667 5.109,0.5 l 5.123,-0.302 4.235,-11 4.234,-11 16.561,-0.274 16.561,-0.274 1.92,5.274 c 1.055,2.901 2.947,8.087 4.202,11.524 l 2.284,6.25 h 5.803 5.802 l -3.801,-9.75 C 600.97,81.399 590.479,54.717 587.556,47.5 l -3.24,-8 -5.57,-0.297 c -3.063,-0.164 -5.804,0.081 -6.09,0.545 z M 620,45 v 6 h 4.5 4.5 v -6 -6 h -4.5 -4.5 z m 62,8.174 v 14.175 l -2.25,-2.05 c -5.804,-5.286 -14.18,-7.06 -22.947,-4.86 -5.239,1.315 -7.093,2.399 -10.982,6.423 -6.041,6.25 -8.247,13.219 -7.619,24.073 C 639.194,108.072 648.658,118 664,118 c 7.026,0 11.969,-1.784 15.501,-5.595 L 682,109.708 v 3.646 3.646 h 4.5 4.5 V 78 39 H 686.5 682 Z M 756.255,40.25 c -0.544,0.688 -1.902,3.725 -3.017,6.75 -1.867,5.065 -6.138,15.967 -20.96,53.5 -3.04,7.7 -5.745,14.563 -6.01,15.25 -0.349,0.906 1.018,1.25 4.972,1.25 h 5.455 L 741,105.5 745.305,94 h 16.623 16.622 l 2.835,8.25 c 5.354,15.58 4.731,14.75 11.064,14.75 3.053,0 5.551,-0.204 5.551,-0.453 0,-0.249 -0.416,-1.487 -0.923,-2.75 -0.508,-1.263 -2.505,-6.347 -4.437,-11.297 -1.932,-4.95 -6.416,-16.425 -9.965,-25.5 -3.549,-9.075 -8.337,-21.337 -10.64,-27.25 L 767.848,39 h -5.301 c -3.047,0 -5.723,0.532 -6.292,1.25 z M 198,43 c 0.589,1.1 0.845,2 0.57,2 -0.275,0 -0.981,-0.9 -1.57,-2 -0.589,-1.1 -0.845,-2 -0.57,-2 0.275,0 0.981,0.9 1.57,2 z m -9.5,1 c 0.34,0.55 -0.084,1 -0.941,1 -0.857,0 -1.559,-0.45 -1.559,-1 0,-0.55 0.423,-1 0.941,-1 0.518,0 1.219,0.45 1.559,1 z m 12.838,6.569 c 0.191,1.638 -0.001,3.868 -0.425,4.955 -0.565,1.444 -0.791,0.854 -0.843,-2.192 -0.038,-2.293 -0.361,-4.993 -0.717,-6 -0.473,-1.338 -0.339,-1.55 0.496,-0.786 0.628,0.575 1.299,2.386 1.489,4.023 z M 91.457,50.069 C 91.141,50.581 90.178,51 89.319,51 c -1.272,0 -1.333,-0.278 -0.328,-1.489 1.291,-1.556 3.468,-1.063 2.466,0.558 z m 48.984,-0.537 c 1.922,1.453 1.922,1.483 0,2.936 -2.495,1.887 -3.894,1.896 -5.441,0.032 -0.993,-1.197 -0.993,-1.803 0,-3 1.547,-1.864 2.946,-1.855 5.441,0.032 z M 181,49.607 c 0,0.216 -0.927,0.393 -2.059,0.393 -1.132,0 -1.793,-0.43 -1.468,-0.956 0.534,-0.864 3.527,-0.386 3.527,0.563 z m -52.192,2.135 c 0.376,2.539 -3.19,4.016 -5.356,2.218 -2.048,-1.699 -1.807,-2.882 0.798,-3.925 3.031,-1.214 4.191,-0.779 4.558,1.707 z M 152.73,51.74 c 0.73,1.901 -1.679,3.383 -4.23,2.602 -2.851,-0.872 -3.716,-2.653 -1.935,-3.986 1.869,-1.4 5.402,-0.607 6.165,1.384 z m 430.304,9.659 c 1.523,4.456 3.938,11.192 5.367,14.97 1.43,3.778 2.599,7.266 2.599,7.75 0,0.485 -5.625,0.881 -12.5,0.881 -9.337,0 -12.498,-0.316 -12.494,-1.25 0.004,-0.687 2.492,-8 5.53,-16.25 3.038,-8.25 5.765,-15.675 6.061,-16.5 0.747,-2.084 1.973,0.26 5.437,10.399 z m 185.25,4.851 c 3.165,8.938 5.746,16.813 5.735,17.5 C 774.005,84.682 770.823,85 761.5,85 754.625,85 749,84.857 749,84.682 c 0,-0.174 1.623,-4.787 3.606,-10.25 1.983,-5.462 4.749,-13.195 6.148,-17.182 1.398,-3.987 2.819,-7.25 3.159,-7.25 0.34,0 3.207,7.313 6.371,16.25 z M 84.019,52.988 c -0.783,0.484 -1.865,0.607 -2.405,0.274 -0.54,-0.334 -0.111,-0.923 0.952,-1.309 2.391,-0.868 3.386,-0.159 1.453,1.035 z M 187.5,52.464 c 2.608,1.194 2.714,1.384 0.809,1.455 -1.205,0.044 -2.482,0.553 -2.839,1.129 -0.356,0.576 -1.395,0.925 -2.309,0.775 -0.913,-0.15 -2.223,0.08 -2.911,0.511 -0.707,0.443 -1.25,0.324 -1.25,-0.275 0,-0.582 0.398,-1.059 0.883,-1.059 0.486,0 1.119,-0.9 1.407,-2 0.607,-2.321 2.041,-2.445 6.21,-0.536 z M 118,54.548 c 0,1.879 -1.973,2.879 -3.22,1.632 -1.493,-1.493 -0.18,-4.271 1.682,-3.556 0.846,0.324 1.538,1.19 1.538,1.924 z m 43.427,-0.878 c 0.57,1.486 -0.815,3.273 -2.57,3.315 -1.343,0.032 -1.868,-3.361 -0.641,-4.14 1.883,-1.194 2.497,-1.036 3.211,0.825 z M 95,55 c 0,0.55 -0.198,1 -0.441,1 C 94.316,56 93.84,55.55 93.5,55 93.16,54.45 93.359,54 93.941,54 94.523,54 95,54.45 95,55 Z m 128.105,0.373 c -0.727,0.876 -2.922,2.035 -4.879,2.575 -2.945,0.813 -3.781,0.687 -4.86,-0.733 -1.189,-1.566 -1.305,-1.571 -1.334,-0.06 -0.018,0.911 -1.607,3.541 -3.532,5.845 -1.925,2.304 -3.5,5.018 -3.5,6.031 0,1.014 2.022,4.796 4.493,8.406 2.472,3.61 4.301,6.563 4.065,6.563 -0.235,0 -1.582,-0.439 -2.993,-0.975 -1.411,-0.537 -2.558,-0.649 -2.55,-0.25 0.035,1.66 1.673,3.108 4.245,3.754 3.179,0.798 3.36,1.297 1.078,2.966 -1.11,0.811 -1.419,1.846 -0.929,3.11 0.709,1.831 0.779,1.833 2.081,0.065 1.947,-2.644 5.752,-1.792 6.922,1.55 0.754,2.152 0.569,3.143 -0.885,4.75 -1.01,1.116 -2.382,2.03 -3.047,2.03 -1.837,0 -6.488,-3.965 -8.466,-7.217 -1.606,-2.641 -1.898,-2.756 -3.344,-1.31 -0.872,0.872 -1.319,2.279 -0.993,3.128 0.326,0.849 -0.368,2.843 -1.542,4.431 -1.174,1.588 -2.135,3.173 -2.135,3.523 0,1.548 -4.249,6.409 -5.128,5.866 -1.637,-1.012 -5.872,4.449 -5.872,7.572 0,1.589 -0.481,3.186 -1.069,3.55 -0.588,0.363 -0.946,2.37 -0.795,4.459 0.151,2.089 -0.318,4.513 -1.043,5.385 -0.799,0.963 -1.061,2.606 -0.666,4.18 0.545,2.168 0.358,2.506 -1.138,2.063 -4.72,-1.398 -19.027,-3.63 -23.263,-3.63 -3.812,0 -5.28,0.526 -7.41,2.657 -1.461,1.461 -2.923,3.717 -3.248,5.013 -0.593,2.364 1.007,5.33 2.877,5.33 0.561,0 0.458,-0.653 -0.235,-1.488 -2.495,-3.007 2.267,-2.812 20.456,0.834 23.894,4.791 24.8,4.777 28.082,-0.422 3.996,-6.33 3.986,-6.571 -0.267,-6.198 -3.734,0.327 -3.753,0.31 -1.531,-1.319 1.238,-0.908 2.257,-2.609 2.265,-3.779 0.009,-1.17 0.436,-2.792 0.949,-3.604 0.762,-1.205 1.099,-1.028 1.835,0.963 0.879,2.375 0.931,2.386 1.983,0.421 0.594,-1.11 0.845,-3.794 0.559,-5.963 -0.297,-2.25 0.105,-5.751 0.935,-8.146 1.402,-4.043 1.367,-4.285 -0.91,-6.425 -2.445,-2.297 -3.154,-7.081 -1.448,-9.776 0.73,-1.153 1.696,-0.928 5.439,1.265 2.503,1.467 5.247,3.661 6.097,4.875 l 1.546,2.207 v -2.812 c 0,-1.709 0.883,-3.528 2.25,-4.638 1.975,-1.602 2.25,-2.751 2.25,-9.407 0,-6.953 -0.698,-9.475 -1.754,-6.338 -0.568,1.687 -2.756,-0.167 -8.91,-7.552 -5.138,-6.164 -6.197,-10.323 -3.252,-12.768 2.009,-1.667 4.649,-0.181 5.411,3.047 0.479,2.03 0.687,2.111 1.842,0.72 0.94,-1.134 1.017,-2.101 0.276,-3.486 -0.89,-1.663 -0.726,-1.86 1.241,-1.484 1.303,0.249 2.826,-0.239 3.579,-1.147 1.143,-1.376 0.942,-1.588 -1.561,-1.643 -2.658,-0.059 -2.709,-0.129 -0.687,-0.944 2.347,-0.946 4.667,-4.436 4.093,-6.158 -0.203,-0.61 -0.908,-0.383 -1.673,0.538 z M 90,56 c 0,0.55 -0.927,1 -2.059,1 -1.132,0 -1.781,-0.45 -1.441,-1 0.34,-0.55 1.266,-1 2.059,-1 0.793,0 1.441,0.45 1.441,1 z m 86.5,3.25 c 0.095,1.292 0.937,2.4 1.978,2.601 1.38,0.268 1.651,-0.072 1.134,-1.42 -0.915,-2.384 1.333,-3.629 3.194,-1.768 0.929,0.929 2.391,1.253 3.922,0.869 1.462,-0.367 2.2,-0.224 1.841,0.356 -0.548,0.887 3.06,2.73 4.586,2.342 0.36,-0.092 0.909,0.494 1.219,1.302 0.346,0.902 -0.035,1.468 -0.989,1.468 -2.088,0 -1.185,2.41 1.066,2.846 1.039,0.201 1.518,-0.087 1.146,-0.689 -0.369,-0.598 0.215,-0.972 1.381,-0.884 2.884,0.218 2.5,1.286 -0.978,2.727 -1.65,0.683 -3,1.708 -3,2.276 0,0.569 -0.791,0.318 -1.757,-0.557 -0.967,-0.874 -5.033,-2.653 -9.035,-3.953 -4.003,-1.299 -7.025,-2.616 -6.715,-2.926 0.31,-0.309 0.097,-1.788 -0.472,-3.285 -0.569,-1.498 -0.762,-3.165 -0.428,-3.705 0.844,-1.366 1.71,-0.275 1.907,2.4 z m -84.13,0.46 c -0.594,0.198 -0.867,1.469 -0.608,2.825 0.649,3.397 -2.33,3.322 -3.184,-0.081 -0.838,-3.338 -0.077,-4.397 2.647,-3.685 1.223,0.32 1.738,0.743 1.145,0.941 z m -8.877,0.279 c 0.35,0.566 -0.051,0.734 -0.941,0.393 C 80.82,59.717 80.503,59 81.941,59 c 0.518,0 1.216,0.445 1.552,0.989 z m 51.694,2.261 c 0.275,2.858 0.705,3.288 3.563,3.563 3.117,0.301 3.25,0.168 3.25,-3.25 0,-4.138 -1.716,-4.838 -2.184,-0.89 -0.46,3.893 -2.816,4.236 -2.816,0.41 0,-1.695 -0.479,-3.083 -1.063,-3.083 -0.598,0 -0.926,1.424 -0.75,3.25 z M 342.5,59.883 c -13.026,3.357 -20.993,14.279 -20.875,28.617 0.152,18.384 10.272,29.467 26.929,29.49 11.975,0.017 21.149,-6.254 23.049,-15.756 L 372.25,99 l -4.375,0.022 c -3.921,0.019 -4.531,0.35 -5.875,3.189 -2.125,4.487 -6.06,6.992 -11.86,7.55 -9.72,0.934 -17.629,-5.499 -18.377,-14.947 L 331.5,91.5 352.358,91.308 c 11.472,-0.105 21.024,-0.356 21.226,-0.558 0.772,-0.772 -1.789,-13.423 -3.49,-17.244 -2.159,-4.847 -7.406,-10.163 -11.902,-12.058 -4.258,-1.795 -11.859,-2.553 -15.692,-1.565 z m 56.417,0.047 c -9.022,1.764 -16.311,8.794 -19.091,18.413 -1.548,5.352 -1.541,15.984 0.013,21.365 4.97,17.21 27.372,23.878 38.798,11.549 L 421,108.708 v 5.178 c 0,6.324 -1.758,10.678 -5.876,14.55 -6.103,5.739 -20.065,4.344 -23.897,-2.388 -1.497,-2.631 -2.293,-3.036 -5.977,-3.042 -3.797,-0.005 -4.25,0.245 -4.25,2.346 0,6.773 9.124,13.268 20.077,14.291 11.989,1.119 21.528,-3.253 26.217,-12.019 2.117,-3.959 2.219,-5.378 2.52,-35.374 L 430.129,61 h -4.565 C 421.1,61 421,61.07 421,64.187 v 3.187 l -2.864,-2.744 c -2.745,-2.63 -10.707,-5.756 -14.045,-5.515 -0.875,0.063 -3.204,0.43 -5.174,0.815 z M 457.326,60 c -7.706,1.606 -13.095,5.601 -15.259,11.315 -2.1,5.543 -1.527,6.685 3.355,6.685 4.191,0 4.485,-0.189 5.61,-3.597 1.588,-4.811 6.157,-6.751 14.625,-6.212 7.754,0.494 10.343,2.481 10.343,7.941 0,4.984 -2.32,6.5 -12.033,7.858 -16.339,2.285 -22.772,5.859 -24.922,13.845 -1.454,5.397 -0.463,10.515 2.783,14.372 3.42,4.065 7.864,5.793 14.896,5.793 7.517,0 11.808,-1.289 16.296,-4.896 l 3.642,-2.927 1.233,3.408 c 1.343,3.716 3.638,4.772 9.205,4.239 3.039,-0.292 3.437,-0.694 3.973,-4.024 0.55,-3.416 0.398,-3.722 -1.989,-4 L 486.5,109.5 486,89.32 C 485.442,66.791 484.991,65.262 477.903,61.855 473.653,59.813 462.883,58.842 457.326,60 Z m 360.392,0.054 c -11.566,2.838 -18.495,12.104 -19.495,26.069 -0.929,12.994 3.885,23.88 12.479,28.215 9.87,4.978 18.922,4.244 26.38,-2.14 l 4.198,-3.594 -0.454,5.482 C 839.867,125.644 833.988,132 824.253,132 c -6.645,0 -11.843,-2.307 -13.823,-6.135 -1.296,-2.506 -2.042,-2.865 -5.956,-2.865 -5.14,0 -5.346,0.568 -2.404,6.645 1.656,3.421 3.207,4.835 7.75,7.066 4.867,2.39 6.9,2.789 14.207,2.789 7.18,0 9.31,-0.403 13.487,-2.553 6.326,-3.255 10.027,-8.613 11.418,-16.529 0.587,-3.345 1.068,-18.082 1.068,-32.75 V 61 h -4.5 c -4.388,0 -4.5,0.079 -4.5,3.174 v 3.175 l -2.25,-2.058 c -5.286,-4.833 -13.917,-6.982 -21.032,-5.237 z m 61,0 c -5.853,1.436 -9.145,3.488 -13.459,8.39 -8.314,9.444 -9.551,23.787 -3.136,36.36 4.583,8.982 10.09,12.516 20.308,13.032 8.902,0.45 13.981,-0.888 18.948,-4.991 3.554,-2.935 7.546,-9.551 7.599,-12.595 0.014,-0.815 -1.516,-1.25 -4.396,-1.25 -4.112,0 -4.544,0.259 -6.25,3.75 -2.598,5.318 -7.255,7.504 -14.693,6.897 -7.566,-0.617 -12.464,-4.292 -14.513,-10.892 C 866.661,90.818 866.181,91 889.611,91 h 20.674 l -0.619,-5.917 c -0.749,-7.171 -4.382,-15.622 -8.287,-19.28 -5.412,-5.07 -15.253,-7.566 -22.661,-5.749 z m 60.64,-0.148 c -4.024,1.021 -9.993,4.701 -10.727,6.614 C 927.583,69.25 926,68.035 926,64.5 926,61.083 925.905,61 922,61 h -4 v 28 28 h 4.424 4.423 l 0.327,-19.25 c 0.29,-17.1 0.549,-19.628 2.326,-22.637 3.564,-6.036 12.736,-8.875 19.887,-6.156 C 954.349,70.844 955,74.03 955,96.45 V 117 h 4.5 4.5 V 94.712 c 0,-21.125 -0.117,-22.521 -2.25,-26.75 -1.538,-3.051 -3.397,-4.999 -5.875,-6.161 -4.42,-2.072 -12.268,-2.972 -16.517,-1.895 z M 994.5,59.634 c -10.089,2.504 -16.336,7.638 -19.463,15.997 -2.999,8.016 -2.841,21.12 0.337,27.869 4.586,9.741 10.26,13.574 21.126,14.272 8.88,0.57 14.05,-0.837 19.16,-5.214 4.19,-3.586 8.92,-12.609 7.94,-15.155 -0.33,-0.874 -2.02,-1.403 -4.46,-1.403 -3.68,0 -4.08,0.299 -6.28,4.698 -3.36,6.692 -6.68,8.802 -13.86,8.802 -10.574,0 -16.017,-6.971 -15.978,-20.462 0.025,-8.46 1.975,-13.935 6.426,-18.038 2.38,-2.193 3.613,-2.5 10.049,-2.5 6.323,0 7.683,0.325 9.843,2.349 1.37,1.292 3.05,3.676 3.72,5.299 1.14,2.739 1.55,2.929 5.83,2.651 4.28,-0.278 4.58,-0.477 4.26,-2.799 -0.89,-6.253 -6.74,-12.972 -12.87,-14.782 -4.73,-1.396 -13.139,-2.24 -15.78,-1.584 z m -813.004,1.373 c -0.785,1.269 2.015,2.413 3.563,1.457 0.842,-0.521 0.788,-0.946 -0.202,-1.574 -1.788,-1.132 -2.607,-1.104 -3.361,0.117 z m -50.673,2.326 C 131.041,64.457 130.471,65 129.073,65 127.933,65 127,64.4 127,63.667 c 0,-3.063 3.239,-3.346 3.823,-0.334 z M 620,89 v 28 h 4.5 4.5 V 89 61 h -4.5 -4.5 z m 405,-27.698 c 0,0.167 4.96,12.626 11.03,27.689 l 11.03,27.386 -1.76,4.921 c -0.98,2.707 -2.82,6.052 -4.1,7.434 -2.01,2.164 -2.96,2.443 -6.82,2.008 l -4.48,-0.506 0.3,4.133 0.3,4.133 6.06,0.293 c 9.89,0.477 11.69,-1.767 21.18,-26.293 14.51,-37.524 19.27,-50.076 19.27,-50.805 -0.01,-0.442 -2.15,-0.667 -4.76,-0.5 l -4.75,0.305 -7.5,21.67 c -4.12,11.919 -7.73,21.902 -8.02,22.185 -0.28,0.283 -4.09,-9.581 -8.45,-21.92 L 1035.6,61 h -5.3 c -2.91,0 -5.3,0.136 -5.3,0.302 z m -928.008,3.57 c -0.004,0.346 -1.184,1.174 -2.622,1.841 -2.529,1.174 -2.558,1.152 -0.894,-0.687 1.03,-1.137 1.403,-2.427 0.93,-3.213 -0.608,-1.011 -0.4,-0.997 0.902,0.059 0.931,0.755 1.688,1.655 1.684,2 z m 90.284,-1.542 c 0.214,0.644 1.192,1.325 2.172,1.516 1.087,0.21 1.619,-0.146 1.363,-0.913 -0.231,-0.692 -1.208,-1.374 -2.172,-1.515 -0.973,-0.143 -1.579,0.263 -1.363,0.912 z m -97.302,3.845 c 1.038,0.334 0.816,0.647 -0.75,1.056 -1.793,0.469 -2.221,0.164 -2.209,-1.575 0.009,-1.253 0.323,-1.695 0.75,-1.056 0.404,0.605 1.398,1.314 2.209,1.575 z m 68.768,2.601 c -0.107,1.426 -0.836,1.699 -3.688,1.382 -1.955,-0.217 -4.076,-0.814 -4.715,-1.325 -0.728,-0.583 -1.402,-0.539 -1.809,0.118 -0.778,1.258 -7.189,1.41 -7.944,0.188 -1.052,-1.703 0.888,-2.139 9.519,-2.139 7.786,0 8.756,0.199 8.637,1.776 z M 169,69.559 c 0,0.857 0.45,1.281 1,0.941 0.55,-0.34 1,-1.041 1,-1.559 0,-0.518 -0.45,-0.941 -1,-0.941 -0.55,0 -1,0.702 -1,1.559 z m 185.98,0.193 c 4.233,2.126 8.02,7.52 8.02,11.421 v 2.878 L 347.25,83.775 331.5,83.5 331.833,81 c 0.513,-3.855 3.433,-8.263 7.119,-10.747 4.118,-2.775 11.07,-2.993 16.028,-0.501 z m 60.592,2.478 c 8.685,9.477 6.634,29.082 -3.681,35.175 -3.728,2.202 -11.643,2.044 -15.504,-0.311 -7.663,-4.673 -10.435,-20.652 -5.322,-30.675 3.322,-6.51 7.37,-8.662 15.33,-8.15 5.261,0.339 6.248,0.765 9.177,3.961 z m 259.097,-1.466 c 6.927,4.933 9.53,19.253 5.291,29.107 -5.389,12.528 -22.3,13.623 -29.026,1.879 C 648.88,98.163 648.5,96.175 648.5,89 c 0,-10.037 2.04,-15.157 7.5,-18.824 2.933,-1.97 4.479,-2.291 9.543,-1.979 4.17,0.256 6.997,1.052 9.126,2.567 z m 157.347,-0.896 c 11.175,5.991 11.165,29.494 -0.016,36.969 -5.048,3.375 -13.736,2.749 -17.956,-1.295 -5.311,-5.088 -7.545,-16.598 -5,-25.761 1.179,-4.244 5.304,-9.57 8.374,-10.812 3.694,-1.494 10.969,-1.046 14.598,0.899 z m 61.265,0.681 c 3.16,2.292 7.166,9.844 6.35,11.971 -0.468,1.219 -3.327,1.48 -16.225,1.48 H 867.75 l 0.627,-3.135 c 0.94,-4.7 4.237,-9.418 7.879,-11.277 4.322,-2.205 13.363,-1.695 17.025,0.961 z M 101,69.441 c 0,0.243 -0.45,0.719 -1,1.059 -0.55,0.34 -1,0.141 -1,-0.441 0,-0.582 0.45,-1.059 1,-1.059 0.55,0 1,0.198 1,0.441 z m 15.553,1.281 c -0.557,1.451 -0.801,1.495 -1.552,0.279 -0.491,-0.794 -1.152,-1.183 -1.47,-0.865 -0.973,0.972 0.54,3.724 2.304,4.191 1.15,0.305 0.97,0.477 -0.585,0.557 -2.769,0.143 -3.021,2.116 -0.27,2.116 1.089,0 3.773,-0.718 5.965,-1.595 2.193,-0.877 4.564,-1.362 5.271,-1.079 0.808,0.325 0.635,0.545 -0.466,0.595 -0.963,0.043 -1.75,0.581 -1.75,1.196 0,0.717 0.804,0.843 2.25,0.353 1.238,-0.42 3.713,-0.776 5.5,-0.792 3.241,-0.028 4.19,-0.979 2.201,-2.208 -0.716,-0.443 -0.678,-1.094 0.123,-2.059 0.644,-0.776 0.778,-1.488 0.298,-1.582 -2.77,-0.542 -13.363,-0.208 -13.367,0.421 -0.003,0.412 0.558,0.757 1.245,0.765 0.834,0.011 0.753,0.33 -0.243,0.96 -1.099,0.694 -1.684,0.426 -2.218,-1.016 -0.895,-2.419 -2.357,-2.526 -3.236,-0.237 z M 138.839,82.32 138.5,92.5 h 11 11 l -0.259,-10.324 c -0.142,-5.678 0.182,-11.078 0.72,-12 0.972,-1.666 1.205,1.274 1.452,18.324 l 0.087,6 H 150 137.5 l -0.238,-13 c -0.176,-9.654 0.04,-12.531 0.839,-11.18 0.646,1.092 0.941,5.894 0.738,12 z M 132.5,71 c -0.34,0.55 -2.279,0.941 -4.309,0.868 L 124.5,71.737 128,71 c 5.154,-1.085 5.17,-1.085 4.5,0 z m 17,1.5 h 8 v 9 9 l -7.75,0.174 c -5.356,0.12 -7.755,-0.189 -7.765,-1 -0.009,-0.682 -0.422,-0.545 -0.985,0.326 -0.66,1.021 -0.969,-1.856 -0.969,-9 0,-5.775 0.33,-10.05 0.734,-9.5 0.404,0.55 4.335,1 8.735,1 z M 110,75.122 c 0,2.663 -0.221,2.939 -1.5,1.878 -2.402,-1.994 -1.912,-3.922 1.25,-4.921 0.138,-0.043 0.25,1.326 0.25,3.043 z m 34,-0.181 c 0,0.518 0.45,1.219 1,1.559 1.157,0.715 1.369,2.623 0.25,2.25 -0.412,-0.138 -0.75,0.2 -0.75,0.75 0,0.55 1.246,0.995 2.769,0.989 2.305,-0.009 2.927,0.562 3.713,3.406 0.518,1.88 0.708,3.797 0.421,4.261 -0.286,0.464 0.217,0.844 1.12,0.844 1.288,0 1.542,-0.729 1.183,-3.395 -0.252,-1.867 -0.835,-4.004 -1.295,-4.749 -0.461,-0.745 -0.707,-2.593 -0.549,-4.105 0.359,-3.418 -2.503,-3.87 -3.165,-0.501 l -0.443,2.25 -0.744,-2.25 C 146.791,74.073 144,73.033 144,74.941 Z m 10.2,1.259 c -1.488,1.488 -1.561,4.459 -0.132,5.342 0.588,0.363 0.786,1.402 0.441,2.309 -0.496,1.303 -0.369,1.392 0.605,0.426 0.966,-0.959 0.972,-1.792 0.027,-3.866 -1.027,-2.254 -0.941,-2.844 0.577,-3.996 0.98,-0.743 1.31,-1.366 0.732,-1.383 -0.577,-0.018 -1.59,0.508 -2.25,1.168 z m 22.242,1.894 c -0.372,0.602 -1.711,0.897 -2.976,0.655 -2.054,-0.393 -2.203,-0.188 -1.4,1.924 0.692,1.821 0.452,2.809 -1.048,4.309 -1.674,1.674 -2.144,1.749 -3.354,0.539 -1.515,-1.515 -1.125,-6.118 0.61,-7.19 0.599,-0.37 0.734,-0.153 0.321,0.514 -0.392,0.635 -0.236,1.155 0.346,1.155 0.582,0 1.059,-0.675 1.059,-1.5 0,-1.052 1.062,-1.5 3.559,-1.5 2.322,0 3.324,0.38 2.883,1.094 z M 90.768,81 c 0.687,1.1 1.09,2 0.895,2 -0.194,0 -1.168,-0.9 -2.163,-2 -0.995,-1.1 -1.398,-2 -0.896,-2 0.503,0 1.477,0.9 2.164,2 z m 50.311,0.583 c 0.048,1.165 0.285,1.402 0.604,0.605 0.289,-0.722 0.253,-1.585 -0.079,-1.917 -0.332,-0.332 -0.568,0.258 -0.525,1.312 z m 44.079,5.836 c 2.938,1.56 6.728,4.296 8.423,6.08 2.76,2.906 2.934,3.439 1.672,5.122 -1.37,1.828 -1.399,1.827 -1.081,-0.069 0.268,-1.594 -0.309,-1.986 -3.172,-2.152 -5.315,-0.309 -9.817,1.95 -10.534,5.284 -0.332,1.549 -1.014,3.829 -1.514,5.066 -1.087,2.69 0.476,3.095 1.928,0.5 0.867,-1.548 1.103,-1.426 2.05,1.065 1.424,3.746 1.573,3.514 -2.68,4.194 -2.062,0.33 -4.531,1.026 -5.486,1.546 -2.685,1.461 -2.706,1.291 -0.537,-4.305 2.329,-6.008 2.813,-20.247 0.856,-25.167 -1.54,-3.871 0.505,-5.377 2.998,-2.207 0.954,1.213 4.139,3.483 7.077,5.043 z M 203,80.969 c 0,0.532 -0.675,0.709 -1.5,0.393 -0.825,-0.317 -1.5,-0.753 -1.5,-0.969 0,-0.216 0.675,-0.393 1.5,-0.393 0.825,0 1.5,0.436 1.5,0.969 z m 0.817,3.566 c 0.174,0.146 -0.104,0.524 -0.617,0.841 -0.513,0.317 -1.78,-0.378 -2.816,-1.545 -1.879,-2.116 -1.877,-2.119 0.616,-0.841 1.375,0.704 2.642,1.4 2.817,1.545 z M 148,84.107 c 0,0.609 -0.661,0.853 -1.468,0.544 -0.807,-0.31 -1.705,-0.18 -1.994,0.288 -0.29,0.468 0.183,1.124 1.05,1.456 2.886,1.108 4.412,0.626 4.412,-1.395 0,-1.1 -0.45,-2 -1,-2 -0.55,0 -1,0.498 -1,1.107 z M 95.98,86.75 c 0.057,0.963 0.097,3.1 0.088,4.75 -0.029,5.848 2.038,16.95 3.968,21.314 1.173,2.651 1.437,3.993 0.659,3.348 -0.715,-0.593 -2.236,-0.833 -3.38,-0.534 -1.917,0.501 -8.315,-1.976 -8.315,-3.219 0,-0.297 0.517,-1.507 1.149,-2.688 l 1.149,-2.147 0.819,2.213 c 1.655,4.473 2.509,2.033 1.412,-4.032 C 92.228,98.56 90.163,96.806 83.5,97.24 c -3.383,0.22 -3.947,0.568 -3.655,2.26 0.399,2.315 -0.077,1.954 -1.809,-1.371 -0.684,-1.311 -0.775,-2.086 -0.205,-1.733 1.587,0.98 2.612,-1.496 1.047,-2.528 -1.107,-0.73 -0.911,-1.3 0.998,-2.901 1.307,-1.096 3.557,-2.243 5,-2.549 1.443,-0.306 3.62,-0.958 4.838,-1.449 1.443,-0.582 2.45,-0.513 2.889,0.197 0.442,0.716 0.987,0.532 1.585,-0.538 1.171,-2.092 1.662,-2.059 1.792,0.122 z M 174,87.2 c 0,1.615 -0.296,1.904 -1.113,1.087 -0.612,-0.612 -0.81,-1.602 -0.441,-2.2 C 173.481,84.413 174,84.785 174,87.2 Z M 121,87 c 0,0.55 0.477,1 1.059,1 0.582,0 0.781,-0.45 0.441,-1 -0.34,-0.55 -0.816,-1 -1.059,-1 -0.243,0 -0.441,0.45 -0.441,1 z m -20,2.559 c 0,0.793 0.188,1.441 0.418,1.441 0.23,0 1.13,0.273 2,0.607 1.078,0.413 1.582,0.039 1.582,-1.174 0,-3.334 4.984,2.504 5.116,5.991 0.064,1.692 0.322,2.289 0.573,1.326 0.294,-1.123 1.417,-1.745 3.134,-1.735 1.914,0.011 2.284,0.264 1.299,0.889 -1.716,1.087 -0.431,3.429 1.479,2.696 0.774,-0.297 1.399,0.067 1.399,0.815 0,0.743 -0.974,1.606 -2.164,1.918 -1.874,0.49 -1.983,0.785 -0.815,2.193 1.138,1.371 1.125,1.775 -0.085,2.569 -1.212,0.796 -1.149,1.162 0.405,2.351 1.247,0.954 1.628,2.075 1.182,3.481 -0.548,1.727 -0.271,2.031 1.656,1.823 1.723,-0.186 2.396,0.316 2.633,1.965 0.317,2.212 -0.437,2.631 -6.312,3.505 -1.36,0.202 -2.104,1.203 -2.325,3.126 -0.313,2.725 -0.395,2.765 -2.25,1.086 -2.592,-2.345 -2.456,-2.9 1.295,-5.274 2.378,-1.506 3.56,-1.756 4.524,-0.956 2.022,1.678 2.78,0.034 0.928,-2.012 -0.907,-1.003 -2.336,-3.593 -3.176,-5.756 -0.979,-2.523 -1.335,-2.948 -0.992,-1.184 0.78,4.017 -0.324,3.363 -2.531,-1.5 -1.155,-2.546 -1.938,-6.497 -1.951,-9.853 L 108,92.294 102.838,92.79 c -4.583,0.44 -5.087,0.302 -4.5,-1.229 C 98.702,90.612 99,89.172 99,88.359 c 0,-0.812 0.45,-1.199 1,-0.859 0.55,0.34 1,1.266 1,2.059 z M 133,88 c 0,0.55 -0.787,0.993 -1.75,0.985 -1.496,-0.013 -1.532,-0.157 -0.25,-0.985 1.887,-1.22 2,-1.22 2,0 z m 37,1.749 c 0,-1.306 0.407,-1.372 2.492,-0.405 2.913,1.351 3.662,6.656 0.941,6.656 -1.092,0 -1.382,0.584 -0.957,1.925 0.464,1.462 0.06,2.02 -1.682,2.324 -2.125,0.37 -2.154,0.461 -0.399,1.238 1.367,0.605 2.272,0.322 3.25,-1.016 1.487,-2.034 1.664,-1.268 0.756,3.273 -0.588,2.942 -0.666,2.976 -4.561,1.987 -3.421,-0.868 -3.939,-1.362 -3.795,-3.618 0.264,-4.139 -0.214,-4.878 -1.045,-1.613 -0.702,2.76 -0.773,2.644 -0.882,-1.441 -0.098,-3.704 0.09,-4.184 1.132,-2.89 1.842,2.286 4.496,2.936 5.139,1.259 C 171.205,95.301 169.289,91 167.525,91 166.686,91 166,90.255 166,89.345 c 0,-1.488 0.201,-1.473 2,0.155 1.706,1.544 2,1.581 2,0.249 z m -54.451,2.062 c -0.785,0.172 -1.592,1.072 -1.795,2 -0.211,0.969 -0.578,0.383 -0.86,-1.372 -0.464,-2.886 -0.361,-3 1.794,-2 1.518,0.705 1.807,1.166 0.861,1.372 z M 476,94.596 c 0,9.638 -4.535,14.243 -14.827,15.055 -6.603,0.521 -10.047,-0.905 -11.995,-4.966 -2.952,-6.158 2.691,-12.065 12.622,-13.212 3.135,-0.362 7.05,-1.026 8.7,-1.476 5.384,-1.466 5.5,-1.37 5.5,4.599 z M 125.75,91.689 c -0.963,0.252 -1.75,1.1 -1.75,1.884 0,1.024 -1.201,1.406 -4.25,1.353 l -4.25,-0.074 4,-1.852 c 2.2,-1.018 4.9,-1.833 6,-1.81 1.656,0.035 1.699,0.121 0.25,0.499 z M 106,95.5 c 0,0.825 -0.787,1.506 -1.75,1.514 -0.963,0.007 -2.763,0.285 -4,0.616 C 98.435,98.117 98,97.824 98,96.117 98,94.314 98.593,94 102,94 c 2.889,0 4,0.417 4,1.5 z m 30,2.035 c 0,1.215 -0.409,1.316 -1.959,0.487 -1.144,-0.612 -4.213,-0.784 -7.371,-0.413 -3.28,0.385 -6.15,0.206 -7.29,-0.456 -1.459,-0.848 0.192,-1.099 7.37,-1.123 7.663,-0.025 9.25,0.233 9.25,1.505 z m 6.251,0.613 c -0.505,1.929 -0.683,1.982 -1.755,0.515 -0.657,-0.897 -1.456,-1.37 -1.776,-1.05 -1.011,1.012 0.476,3.517 2.669,4.499 2.059,0.921 2.056,0.934 -0.138,0.51 -2.892,-0.558 -4.133,1.335 -1.352,2.062 1.322,0.346 2.089,1.34 2.069,2.683 -0.03,2.021 -0.104,2.038 -1.404,0.323 -1.545,-2.038 -2.913,-0.874 -1.555,1.324 0.528,0.855 0.453,1.929 -0.189,2.702 -1.776,2.14 4.304,1.534 7.18,-0.716 1.375,-1.076 3.175,-1.951 4,-1.946 1.136,0.007 1.029,0.366 -0.441,1.478 -1.908,1.443 -1.906,1.468 0.127,1.468 2.206,0 4.716,-2.265 3.67,-3.311 -0.345,-0.345 0.866,-0.199 2.692,0.325 4.197,1.203 5.114,0.351 2.181,-2.028 -1.329,-1.077 -1.848,-2.104 -1.25,-2.473 0.561,-0.347 1.021,-0.128 1.021,0.487 0,0.615 0.457,0.835 1.016,0.49 0.559,-0.346 0.758,-1.047 0.441,-1.559 -0.316,-0.512 -0.117,-0.931 0.444,-0.931 0.56,0 0.924,-1.349 0.809,-2.998 -0.211,-3.016 -1.108,-3.88 -2.052,-1.977 -0.279,0.564 -0.394,0.451 -0.255,-0.25 0.14,-0.701 1.288,-1.426 2.552,-1.611 2.214,-0.324 2.282,-0.123 1.858,5.5 -0.438,5.817 -3.227,13.336 -4.946,13.336 -0.498,0 -0.623,-1.125 -0.278,-2.5 0.732,-2.915 -1.066,-3.363 -4.148,-1.032 -1.541,1.166 -1.622,1.475 -0.391,1.5 0.853,0.018 2.09,-0.508 2.75,-1.168 0.864,-0.864 1.2,-0.881 1.2,-0.059 0,0.628 -0.457,1.424 -1.016,1.769 -1.634,1.01 -6.19,1.633 -5.66,0.774 0.266,-0.431 -0.598,-0.849 -1.92,-0.928 -1.322,-0.08 -2.404,0.258 -2.404,0.75 0,0.492 0.787,0.901 1.75,0.909 1.496,0.013 1.532,0.157 0.25,0.985 -2.126,1.374 -3,1.229 -3,-0.5 0,-0.833 -0.889,-1.5 -2,-1.5 -1.403,0 -2.005,0.672 -2.015,2.25 -0.012,1.777 -0.211,1.941 -0.946,0.779 -1.425,-2.253 -2.359,-0.495 -1.043,1.963 0.749,1.4 1.747,1.959 2.831,1.584 1.107,-0.384 0.912,0.067 -0.577,1.332 -2.546,2.164 -2.837,3.092 -0.97,3.092 0.704,0 2.784,-1.595 4.623,-3.544 1.838,-1.949 3.612,-3.275 3.941,-2.946 0.329,0.329 -0.051,1 -0.844,1.49 -0.793,0.49 -1.12,1.213 -0.727,1.606 0.875,0.875 4.867,-2.57 4.21,-3.633 -0.511,-0.827 4.461,-2.362 5.214,-1.61 0.253,0.254 -0.907,1.472 -2.579,2.708 -1.672,1.236 -2.763,2.695 -2.424,3.243 0.338,0.547 0.145,0.705 -0.43,0.349 -0.574,-0.355 -3.006,0.429 -5.404,1.741 -2.398,1.313 -5.372,2.689 -6.61,3.059 L 137,128.135 V 112.067 96 h 2.906 c 2.481,0 2.825,0.315 2.345,2.148 z m 5.295,-0.745 c 1.185,1.185 1.189,1.485 0.027,1.931 -0.804,0.308 -1.586,-0.275 -1.881,-1.403 -0.598,-2.289 -0.061,-2.442 1.854,-0.528 z m 6.474,-0.38 c -1.931,0.454 -4.157,0.422 -5,-0.072 -1.024,-0.599 0.113,-0.867 3.48,-0.818 4.817,0.069 4.872,0.102 1.52,0.89 z m 47.618,0.477 c -0.316,0.825 -0.139,1.5 0.393,1.5 0.533,0 0.969,-0.675 0.969,-1.5 0,-0.825 -0.177,-1.5 -0.393,-1.5 -0.216,0 -0.652,0.675 -0.969,1.5 z m -94.653,3.75 c 0.008,0.412 -0.901,0.75 -2.02,0.75 -1.768,0 -1.885,-0.28 -0.893,-2.135 0.913,-1.706 1.319,-1.857 2.02,-0.75 0.483,0.762 0.884,1.723 0.893,2.135 z M 101,100.5 c -0.685,0.825 -1.64,1.5 -2.122,1.5 -0.483,0 -0.878,-0.675 -0.878,-1.5 0,-0.862 0.902,-1.5 2.122,-1.5 1.774,0 1.918,0.247 0.878,1.5 z m 31.221,1.482 c -0.392,3.486 -1.667,4.397 -3.313,2.368 -1.163,-1.432 -1.168,-1.589 -0.028,-0.903 0.954,0.575 1.237,0.403 0.917,-0.558 -0.4,-1.201 -4.797,-2.312 -4.797,-1.212 0,1.214 4.447,6.165 5.148,5.732 0.456,-0.282 0.547,0.223 0.201,1.123 -0.502,1.309 -0.796,1.369 -1.473,0.302 -0.804,-1.269 -1.043,-0.915 -1.289,1.907 -0.116,1.332 -1.522,1.756 -1.686,0.509 -0.054,-0.412 -0.552,-1.598 -1.107,-2.635 -0.811,-1.515 -1.175,-1.616 -1.857,-0.513 -0.617,0.998 -0.805,0.795 -0.689,-0.746 0.161,-2.141 1.215,-2.447 3.502,-1.019 0.688,0.43 1.25,0.36 1.25,-0.156 0,-1.431 -2.587,-3.261 -3.425,-2.422 -0.408,0.407 -0.592,0.224 -0.408,-0.409 0.183,-0.632 -0.117,-1.083 -0.667,-1 -0.55,0.083 -0.872,0.535 -0.715,1.005 0.157,0.471 -0.178,1.414 -0.744,2.096 -1.461,1.76 3.826,8.692 6.209,8.141 0.963,-0.223 1.75,-0.259 1.75,-0.08 0,0.178 0.285,1.067 0.634,1.975 0.586,1.527 0.341,1.532 -3.25,0.062 -4.988,-2.042 -7.384,-4.952 -7.384,-8.969 0,-4.314 1.807,-6.386 6,-6.881 6.45,-0.761 7.526,-0.421 7.221,2.283 z M 111.232,103 c 0,1.925 0.206,2.713 0.457,1.75 0.252,-0.963 0.252,-2.537 0,-3.5 -0.251,-0.963 -0.457,-0.175 -0.457,1.75 z m 40.018,-1.338 c -0.687,0.278 -1.25,0.917 -1.25,1.421 0,1.436 2.7,1.075 4.357,-0.583 1.697,-1.697 4.643,-2.014 4.643,-0.5 0,0.55 -0.882,1 -1.961,1 -1.078,0 -2.534,0.615 -3.236,1.366 -0.954,1.021 -1.985,1.118 -4.09,0.384 -3.402,-1.186 -4.99,-0.158 -1.66,1.074 l 2.344,0.867 -2.733,0.522 c -1.503,0.288 -2.497,0.286 -2.207,-0.003 0.289,-0.289 0.039,-1.112 -0.555,-1.829 -0.831,-1.001 -0.309,-1.639 2.258,-2.76 1.837,-0.802 3.79,-1.459 4.34,-1.46 0.55,-0.002 0.438,0.224 -0.25,0.501 z m -43.265,4.415 c 0.008,0.317 -1.282,0.386 -2.867,0.154 -1.584,-0.233 -3.186,0.07 -3.559,0.673 -1.083,1.754 -2.559,1.267 -2.559,-0.844 0,-3.238 8.899,-3.221 8.985,0.017 z m 88.622,-0.495 c -0.939,2.446 -0.735,2.769 0.893,1.418 1.662,-1.38 1.99,-3 0.607,-3 -0.491,0 -1.166,0.712 -1.5,1.582 z m -61.015,23.159 c -0.26,0.261 -3.002,-0.973 -6.092,-2.741 -3.09,-1.768 -5.852,-2.982 -6.137,-2.697 -0.824,0.824 13.554,8.866 18.577,10.391 2.508,0.762 5.412,1.167 6.454,0.901 1.082,-0.276 1.511,-0.111 1,0.384 -0.492,0.477 -2.244,1.014 -3.894,1.194 -2.263,0.247 -3.081,0.901 -3.331,2.665 -0.443,3.131 -2.875,2.542 -15.486,-3.748 -7.345,-3.663 -9.36,-4.354 -8,-2.743 l 1.817,2.153 -2.244,-1.9 c -1.848,-1.564 -4.227,-7.024 -4.25,-9.754 -0.009,-1.04 10.144,-0.836 12.164,0.245 1.25,0.669 1.83,0.636 1.83,-0.104 0,-0.596 -1.357,-1.654 -3.017,-2.352 -3.456,-1.453 -2.939,-2.635 1.152,-2.635 2.073,0 2.653,0.388 2.23,1.492 -0.829,2.16 2.474,3.098 4.34,1.232 0.968,-0.969 1.783,-4.303 2.172,-8.887 0.592,-6.968 0.637,-6.74 0.906,4.547 0.155,6.536 0.07,12.097 -0.191,12.357 z M 124,106.255 c 0,0.275 0.635,1.027 1.411,1.671 1.087,0.902 1.583,0.873 2.16,-0.127 0.412,-0.715 0.381,-0.965 -0.069,-0.558 -0.45,0.408 -1.422,0.24 -2.16,-0.372 C 124.604,106.256 124,105.98 124,106.255 Z m -17.441,1.841 c 1.057,1.71 -2.277,4.586 -3.685,3.178 -0.627,-0.627 -0.869,-1.845 -0.538,-2.707 0.692,-1.803 3.225,-2.086 4.223,-0.471 z M 168,108.122 c 0,0.817 0.377,0.81 1.385,-0.026 1.103,-0.916 1.51,-0.652 1.999,1.298 0.586,2.334 -0.048,5.606 -1.087,5.606 -0.385,0 -4.825,-2.31 -7.218,-3.754 -0.555,-0.335 3.205,-4.11 4.171,-4.187 0.412,-0.032 0.75,0.446 0.75,1.063 z m -58.012,3.187 c -0.007,0.655 -1.542,2.182 -3.412,3.392 -2.911,1.885 -3.484,1.981 -3.988,0.669 -0.876,-2.285 -0.805,-2.37 2.006,-2.37 1.747,0 2.763,-0.649 3.113,-1.989 0.536,-2.05 2.303,-1.819 2.281,0.298 z m 88.507,2.941 1.399,3.25 0.685,-3.285 c 0.654,-3.136 0.771,-3.209 2.553,-1.595 3.772,3.413 1.586,12.247 -4.858,19.633 -1.801,2.064 -3.274,4.201 -3.274,4.75 0,0.548 -0.97,0.997 -2.155,0.997 -2.024,0 -2.055,-0.111 -0.5,-1.829 1.955,-2.16 2.118,-4.308 0.454,-5.972 -1.759,-1.759 -0.963,-9.807 1.361,-13.745 1.099,-1.864 1.711,-3.853 1.36,-4.421 -0.351,-0.568 -0.14,-1.033 0.469,-1.033 0.609,0 1.737,1.463 2.506,3.25 z m -34.749,1.224 -2.754,1.129 2.754,2.072 c 2.751,2.069 2.752,2.074 0.797,4.255 l -1.957,2.184 -0.799,-2.161 c -0.523,-1.414 -1.339,-1.955 -2.359,-1.564 -1.234,0.474 -1.411,0.133 -0.849,-1.637 0.631,-1.988 0.527,-2.084 -0.935,-0.872 -2.502,2.077 -2.017,4.12 0.978,4.12 2.218,0 2.431,0.232 1.378,1.5 -0.685,0.825 -0.91,1.5 -0.5,1.5 0.41,0 0.176,0.686 -0.519,1.523 -1.098,1.323 -1.577,1.065 -3.627,-1.953 l -2.362,-3.476 4.754,-4.867 c 4.008,-4.102 5.068,-4.71 6.754,-3.874 1.898,0.942 1.86,1.05 -0.754,2.121 z m -51.961,1.285 c -0.733,0.884 -1.434,0.992 -2.1,0.326 -0.667,-0.667 -0.56,-1.53 0.319,-2.59 1.026,-1.236 1.493,-1.308 2.101,-0.326 0.429,0.695 0.285,1.861 -0.32,2.59 z m 81.337,-1.084 c -0.871,1.499 -1.067,1.542 -1.092,0.242 -0.032,-1.684 1.02,-3.201 1.728,-2.492 0.234,0.234 -0.052,1.246 -0.636,2.25 z M 168.2,118.2 c -0.933,0.933 -1.467,0.933 -2.4,0 -0.933,-0.933 -0.667,-1.2 1.2,-1.2 1.867,0 2.133,0.267 1.2,1.2 z m 22.8,5.3 c 0,0.825 -0.45,1.5 -1,1.5 -0.55,0 -1,-0.675 -1,-1.5 0,-0.825 0.45,-1.5 1,-1.5 0.55,0 1,0.675 1,1.5 z m -76,0.259 c 0,1.11 3.68,3.228 4.384,2.524 0.855,-0.855 -1.368,-3.283 -3.006,-3.283 -0.758,0 -1.378,0.342 -1.378,0.759 z m 4.836,0.535 c 1.778,2.154 0.535,3.95 -2.17,3.134 -1.669,-0.503 -1.903,-0.376 -1.022,0.553 0.629,0.664 1.979,1.046 3,0.849 2.273,-0.438 2.555,-4.932 0.356,-5.659 -1.271,-0.421 -1.296,-0.249 -0.164,1.123 z m 33.036,0.623 c 0.205,0.046 -0.196,0.768 -0.891,1.606 -1.058,1.274 -0.994,1.419 0.388,0.889 1.288,-0.494 1.575,-0.129 1.303,1.657 -0.395,2.583 -2.652,3.758 -7.422,3.861 -3.981,0.086 -4.221,-1.623 -0.799,-5.69 2.155,-2.56 3.909,-3.109 7.421,-2.323 z m -10.852,5.046 c -0.669,1.25 -1.64,1.736 -2.676,1.339 -1.458,-0.56 -1.437,-0.761 0.207,-1.963 2.625,-1.919 3.687,-1.651 2.469,0.624 z M 126,131 c 0,0.55 0.45,1 1,1 0.55,0 1,-0.45 1,-1 0,-0.55 -0.45,-1 -1,-1 -0.55,0 -1,0.45 -1,1 z m 66.559,1.096 c 0.373,0.603 -0.051,1.824 -0.941,2.714 -1.491,1.491 -1.745,1.491 -3.236,0 -1.89,-1.89 -1.075,-3.81 1.618,-3.81 1.035,0 2.187,0.493 2.559,1.096 z M 111.5,137 c 0,1.65 -0.285,3 -0.633,3 -0.82,0 -1.744,-4.79 -1.057,-5.476 1.157,-1.158 1.69,-0.377 1.69,2.476 z m 23.5,-1.441 c 0,0.857 0.457,1.276 1.016,0.931 0.559,-0.346 0.758,-1.047 0.441,-1.559 C 135.6,133.544 135,133.802 135,135.559 Z m 27.463,0.501 c 1.104,-1.787 2.046,-1.199 3.269,2.04 1.258,3.333 3.768,3.544 3.768,0.317 0,-1.257 -0.639,-1.863 -1.857,-1.76 -1.312,0.11 -1.544,-0.156 -0.792,-0.908 0.752,-0.752 1.516,-0.689 2.607,0.216 1.955,1.623 1.964,3.44 0.023,5.051 -1.24,1.029 -1.863,0.948 -3.396,-0.439 -1.462,-1.323 -1.994,-1.409 -2.402,-0.388 -0.348,0.869 -0.552,0.731 -0.604,-0.408 -0.051,-1.102 -0.617,-1.512 -1.579,-1.143 -0.867,0.333 -1.53,0.003 -1.57,-0.781 -0.039,-0.746 -0.457,-0.457 -0.93,0.643 -0.779,1.812 -0.866,1.757 -0.93,-0.583 -0.091,-3.358 1.067,-4.451 2.557,-2.413 0.759,1.039 1.415,1.237 1.836,0.556 z m -58.213,-0.398 c -1.852,0.748 -1.515,2.336 0.5,2.353 1.498,0.013 1.534,0.157 0.25,1 -1.333,0.876 -1.333,1.094 0,1.97 1.304,0.855 1.285,0.986 -0.142,1 -0.931,0.008 -1.917,-1.086 -2.28,-2.531 -0.714,-2.843 -0.061,-4.494 1.731,-4.375 0.859,0.057 0.842,0.22 -0.059,0.583 z m -5.418,4.97 c -0.483,2.51 -3.899,2.996 -5.516,0.786 C 91.747,139.271 91.629,138 93,138 c 0.55,0 1,0.9 1,2 0,1.368 0.667,2 2.108,2 1.798,0 2.009,-0.405 1.43,-2.75 -0.515,-2.086 -0.398,-2.474 0.485,-1.606 0.641,0.629 1.005,1.974 0.809,2.988 z m 75.997,-1.535 c 0.72,1.154 1.049,2.359 0.73,2.677 -0.596,0.596 -3.47,-2.683 -3.527,-4.024 -0.063,-1.472 1.509,-0.715 2.797,1.347 z m -85.621,-0.421 c -0.992,0.398 -1.021,0.844 -0.127,1.921 0.64,0.772 0.771,1.435 0.291,1.473 -0.479,0.039 0.028,0.457 1.128,0.93 1.945,0.836 1.941,0.861 -0.143,0.93 C 88.27,143.998 87,142.292 87,139.418 c 0,-0.78 0.787,-1.382 1.75,-1.339 1.113,0.05 1.28,0.268 0.458,0.597 z m 93.292,2.394 c 0,1.493 -0.662,2.53 -1.75,2.74 -1.275,0.245 -1.75,-0.316 -1.75,-2.07 0,-1.324 0.309,-2.716 0.688,-3.094 1.292,-1.292 2.812,0.018 2.812,2.424 z M 85.914,144 c 0.049,1.333 -0.052,1.333 -0.914,0 -0.533,-0.825 -0.945,-2.4 -0.914,-3.5 l 0.055,-2 0.859,2 c 0.473,1.1 0.884,2.675 0.914,3.5 z M 180,141 c 0,1.1 0.45,2 1,2 0.55,0 1,-0.9 1,-2 0,-1.1 -0.45,-2 -1,-2 -0.55,0 -1,0.9 -1,2 z m 7.495,-1.008 c 0.337,0.546 0.153,1.783 -0.41,2.75 -0.564,0.967 -1.045,1.308 -1.07,0.758 -0.025,-0.55 -0.482,-0.325 -1.015,0.5 -0.838,1.297 -0.971,1.274 -0.985,-0.168 -0.035,-3.837 2.056,-6.144 3.48,-3.84 z m -105.12,2.23 c 0.804,1.282 0.737,2.05 -0.26,3 -1.107,1.056 -1.221,0.886 -0.658,-0.977 0.482,-1.597 0.21,-2.435 -0.931,-2.873 -2.29,-0.879 -2.732,-0.043 -1.579,2.989 C 79.499,145.813 79.56,147 79.082,147 78.01,147 77,144.501 77,141.849 c 0,-2.476 3.753,-2.215 5.375,0.373 z m 111.687,-1.402 c 1.111,0.483 1.369,1.403 0.894,3.18 l -0.669,2.5 -0.752,-2.75 c -0.413,-1.512 -1.378,-2.75 -2.143,-2.75 -1.73,0 -1.849,3.649 -0.142,4.338 0.979,0.395 0.972,0.521 -0.031,0.583 -1.582,0.098 -2.632,-2.402 -1.857,-4.421 0.608,-1.584 2.119,-1.803 4.7,-0.68 z m 4.923,1.93 c -0.009,0.963 -0.461,2.425 -1.005,3.25 -0.744,1.127 -0.936,0.692 -0.772,-1.75 0.223,-3.326 1.804,-4.662 1.777,-1.5 z M 135.5,144 c 0.34,0.55 0.816,1 1.059,1 0.243,0 0.441,-0.45 0.441,-1 0,-0.55 -0.477,-1 -1.059,-1 -0.582,0 -0.781,0.45 -0.441,1 z m -2.21,7 c 0.322,1.231 1.364,2 2.71,2 1.346,0 2.388,-0.769 2.71,-2 0.288,-1.1 1.201,-2 2.029,-2 1.325,0 1.331,0.262 0.048,2.195 -0.802,1.207 -2.207,2.667 -3.122,3.245 -1.962,1.237 -4.234,0.094 -6.452,-3.245 -1.283,-1.933 -1.277,-2.195 0.048,-2.195 0.828,0 1.741,0.9 2.029,2 z m 8.834,2.267 c -0.988,0.98 -1.102,0.865 -0.56,-0.56 0.376,-0.986 0.935,-1.541 1.243,-1.233 0.308,0.307 0.001,1.114 -0.683,1.793 z"
     fill="#000000"
     id="path1" />
</svg>
